<?xml version="1.0" encoding="UTF-8"?>
<svg xmlns="http://www.w3.org/2000/svg" version="1.1" viewBox="0 0 1122 1122">
  <!-- Generator: Adobe Illustrator 30.0.0, SVG Export Plug-In . SVG Version: 2.1.1 Build 123)  -->
  <defs>
    <style>
      .st0 {
        fill: #5f72a1;
      }

      .st1 {
        fill: #f6f0e9;
      }

      .st2 {
        fill: #fff;
      }

      .st3, .st4 {
        fill: #c8e3f2;
      }

      .st5 {
        fill: #000d2a;
      }

      .st6 {
        isolation: isolate;
      }

      .st7 {
        fill: #41507e;
      }

      .st4 {
        mix-blend-mode: multiply;
      }

      .st8 {
        fill: #5f72a1;
      }
    </style>
  </defs>
  <g class="st6">
    <g id="BG">
      <rect class="st3" width="1122" height="1122"/>
    </g>
    <g id="Object">
      <g>
        <path class="st4" d="M752.91,710.84l-203.02-117.22c-60.8-35.1-159.05-35.1-219.45,0-60.4,35.1-60.09,92.01.72,127.12l203.02,117.22c60.8,35.1,159.05,35.1,219.45,0,60.4-35.1,60.08-92.01-.72-127.11Z"/>
        <g>
          <path class="st0" d="M502,356.73c-.33-.18-.66-.35-.99-.51-.26-.13-.51-.27-.77-.4-.41-.2-.82-.38-1.22-.58-.29-.14-.59-.28-.88-.41-.12-.05-.24-.12-.36-.17-.81-.36-1.62-.71-2.43-1.03,0,0,0,0,0,0-.82-.33-1.64-.64-2.45-.92-.11-.04-.21-.07-.31-.1-.29-.1-.58-.19-.88-.29-.41-.14-.83-.28-1.24-.41-.21-.06-.41-.11-.61-.17-.36-.1-.72-.2-1.07-.3-.28-.07-.55-.16-.83-.23-.29-.07-.57-.12-.86-.19-.36-.08-.71-.16-1.07-.24-.19-.04-.38-.09-.57-.13-.34-.07-.66-.11-1-.16-.41-.07-.82-.14-1.23-.2-.14-.02-.29-.05-.43-.07-.34-.05-.67-.07-1.01-.1-.44-.05-.88-.1-1.31-.13-.13-.01-.26-.03-.39-.04-.3-.02-.58-.02-.88-.03-.52-.02-1.04-.05-1.55-.05-.14,0-.29-.01-.43-.01-.57,0-1.13.02-1.68.05-.07,0-.14.01-.21.01-.42.02-.84.05-1.26.09-.26.02-.52.06-.79.09-.2.02-.4.04-.59.07-.72.1-1.43.21-2.13.35-.02,0-.04.01-.06.02-.19.04-.38.09-.57.13-.58.13-1.16.26-1.72.42-.28.08-.55.17-.82.26-.36.11-.73.21-1.08.34-.09.03-.17.07-.26.11-.55.2-1.08.43-1.61.66-.26.11-.52.21-.78.33-.78.36-1.54.75-2.27,1.18l-7.05,4.1c.74-.43,1.5-.82,2.27-1.18.25-.12.52-.22.78-.33.53-.23,1.06-.46,1.61-.65.44-.16.89-.31,1.34-.45.27-.09.54-.18.82-.26.56-.16,1.14-.29,1.72-.42.19-.04.37-.1.57-.13.72-.15,1.45-.26,2.19-.36.2-.03.4-.05.59-.07.67-.08,1.35-.14,2.04-.18.07,0,.14-.01.21-.01.7-.03,1.4-.04,2.11-.03.51,0,1.03.03,1.55.05.42.02.84.03,1.26.07.43.03.87.09,1.31.13.48.05.96.1,1.44.17.41.06.82.13,1.23.2.52.09,1.04.18,1.56.29.35.07.71.16,1.07.24.56.13,1.12.27,1.68.42.36.1.71.19,1.07.3.61.18,1.23.37,1.86.58.29.1.58.18.88.29,1.83.63,3.68,1.37,5.56,2.23.29.13.59.28.88.41.66.31,1.32.63,1.99.97.33.17.66.34.99.51.88.47,1.77.94,2.66,1.46l7.05-4.1c-.65-.37-1.29-.73-1.93-1.08-.24-.13-.49-.25-.73-.38Z"/>
          <path class="st7" d="M834.98,626.61c0-.14-.01-.28-.02-.42-.01-.3-.03-.6-.04-.9-.02-.35-.03-.7-.05-1.05-.02-.27-.04-.54-.06-.81-.02-.32-.05-.63-.08-.95-.02-.21-.03-.41-.05-.62-.04-.45-.1-.9-.15-1.35-.03-.26-.05-.52-.09-.78-.01-.09-.02-.17-.03-.26-.1-.82-.22-1.63-.35-2.45,0-.02,0-.04,0-.05-.02-.12-.04-.24-.06-.35-.11-.69-.23-1.37-.36-2.06-.02-.12-.05-.25-.07-.37-.06-.33-.13-.65-.2-.98-.08-.4-.16-.8-.24-1.2-.05-.22-.11-.44-.16-.67-.08-.36-.16-.71-.25-1.07-.07-.28-.12-.55-.19-.83-.08-.33-.17-.66-.26-.99-.09-.36-.19-.72-.28-1.08-.05-.18-.09-.35-.14-.53-.13-.47-.27-.94-.41-1.41-.09-.31-.17-.61-.27-.91-.03-.09-.05-.17-.08-.26-.26-.84-.53-1.68-.81-2.53,0-.01,0-.02-.01-.03-.02-.07-.05-.14-.08-.22-.25-.75-.51-1.5-.78-2.24-.04-.12-.09-.23-.13-.35-.1-.28-.21-.56-.31-.84-.15-.4-.3-.8-.45-1.2-.1-.25-.21-.51-.31-.76-.12-.31-.25-.62-.37-.93-.09-.23-.18-.45-.27-.68-.19-.45-.39-.9-.58-1.36-.1-.24-.2-.48-.31-.72-.04-.09-.07-.17-.11-.26-.35-.79-.71-1.58-1.07-2.36-.02-.03-.03-.07-.05-.1-.1-.22-.21-.44-.32-.66-.29-.61-.58-1.21-.88-1.81-.05-.09-.1-.19-.15-.28-.25-.49-.5-.98-.76-1.47-.21-.39-.4-.79-.61-1.19-.04-.07-.08-.14-.12-.21-.68-1.27-1.38-2.52-2.11-3.76-.06-.11-.12-.21-.18-.32-.19-.32-.38-.62-.57-.94-.31-.51-.61-1.02-.92-1.52-.28-.45-.56-.89-.85-1.34-.32-.5-.64-.99-.96-1.48-.11-.16-.21-.33-.32-.49-.1-.15-.22-.3-.32-.46-.9-1.34-1.82-2.66-2.77-3.95,0,0,0,0,0,0,0,0-.01-.02-.02-.03-.67-.91-1.36-1.82-2.06-2.71-.03-.04-.06-.08-.09-.12-.51-.65-1.04-1.3-1.57-1.93-.1-.12-.2-.25-.3-.37,0,0-.01-.02-.02-.02-.62-.75-1.25-1.48-1.89-2.21-.03-.04-.07-.07-.1-.11-.19-.22-.39-.43-.58-.65-.41-.45-.81-.91-1.22-1.35-.08-.08-.16-.16-.23-.25-.28-.3-.56-.59-.84-.88-.31-.32-.61-.65-.93-.97-.12-.12-.24-.23-.35-.35-.3-.31-.61-.61-.92-.91-.26-.26-.52-.53-.79-.78-.15-.15-.31-.28-.46-.43-.33-.31-.66-.62-1-.93-.23-.21-.46-.43-.69-.64-.18-.16-.37-.32-.55-.48-.33-.3-.67-.59-1.01-.88-.2-.18-.41-.36-.61-.53-.22-.19-.45-.37-.67-.55-.33-.27-.66-.54-.99-.81-.17-.14-.34-.28-.51-.42-.28-.22-.57-.43-.85-.65-.31-.24-.61-.47-.92-.7-.13-.09-.25-.19-.38-.29-.38-.28-.77-.55-1.15-.82-.26-.18-.51-.37-.77-.55-.07-.05-.13-.1-.2-.14-.69-.47-1.38-.93-2.08-1.37,0,0-.01,0-.02-.01-.05-.03-.1-.06-.15-.09-.63-.4-1.26-.79-1.9-1.16-.16-.09-.32-.19-.48-.28l-21.11-12.19c-.03-.1-.06-.21-.09-.31-.1-.36-.21-.72-.32-1.08-.24-.85-.49-1.7-.75-2.56-.03-.1-.06-.2-.09-.3-.13-.41-.27-.82-.4-1.23-.23-.73-.46-1.47-.71-2.2-.05-.14-.09-.29-.14-.43-.14-.41-.28-.81-.42-1.22-.23-.68-.47-1.37-.71-2.05-.06-.18-.12-.36-.19-.54-.15-.4-.3-.8-.45-1.2-.23-.63-.46-1.25-.7-1.88-.07-.19-.14-.39-.22-.58-.15-.4-.32-.79-.48-1.18-.24-.6-.48-1.21-.73-1.81-.08-.2-.16-.4-.24-.6-.17-.4-.34-.79-.51-1.19-.25-.58-.5-1.17-.75-1.75-.09-.2-.17-.4-.25-.59-.17-.38-.34-.75-.51-1.12-.28-.63-.57-1.26-.86-1.89-.1-.21-.19-.42-.29-.63-.15-.33-.32-.65-.47-.98-.34-.71-.68-1.42-1.03-2.13-.12-.25-.24-.5-.36-.75-.12-.25-.25-.49-.38-.73-.45-.9-.91-1.79-1.38-2.68-.15-.29-.3-.58-.45-.87-.09-.17-.19-.34-.28-.51-.29-.54-.59-1.08-.88-1.62-.32-.59-.65-1.18-.98-1.76-.3-.54-.61-1.07-.92-1.6-.22-.39-.44-.78-.67-1.16-.08-.14-.17-.27-.25-.41-.87-1.47-1.75-2.93-2.66-4.37-.16-.25-.32-.5-.48-.75-.8-1.25-1.61-2.49-2.43-3.72-.14-.21-.27-.42-.41-.62-.13-.19-.26-.38-.39-.57-.33-.48-.66-.96-1-1.44-.39-.56-.78-1.12-1.18-1.68-.34-.47-.68-.94-1.02-1.41-.23-.31-.45-.63-.68-.94-.13-.17-.26-.34-.39-.51-.82-1.09-1.64-2.18-2.48-3.25-.11-.14-.21-.29-.32-.43-.03-.04-.06-.07-.08-.1-.88-1.11-1.77-2.21-2.67-3.29-.04-.05-.08-.1-.12-.15-.22-.26-.45-.52-.67-.78-.62-.74-1.25-1.48-1.88-2.2-.1-.11-.19-.23-.29-.34-.24-.27-.49-.54-.73-.81-.57-.64-1.15-1.29-1.73-1.92-.16-.17-.31-.34-.46-.51-.21-.23-.43-.45-.64-.67-.58-.62-1.17-1.23-1.75-1.84-.21-.22-.41-.44-.62-.65-.16-.16-.33-.32-.49-.48-.65-.65-1.3-1.3-1.96-1.93-.24-.24-.48-.48-.72-.72-.09-.09-.19-.18-.28-.27-.88-.84-1.77-1.66-2.66-2.47-.11-.1-.22-.2-.33-.3-.01-.01-.03-.02-.04-.04-1.01-.91-2.04-1.8-3.07-2.68-.07-.06-.14-.12-.21-.18-.25-.21-.5-.41-.75-.61-.71-.59-1.42-1.18-2.14-1.75-.15-.12-.29-.24-.44-.36-.25-.2-.51-.38-.76-.58-.63-.49-1.26-.97-1.89-1.44-.21-.16-.41-.32-.62-.48-.21-.16-.43-.31-.65-.46-.6-.43-1.19-.86-1.79-1.27-.26-.18-.52-.37-.78-.55-.18-.12-.36-.23-.53-.35-.58-.4-1.17-.78-1.76-1.16-.3-.2-.6-.4-.9-.59-.14-.09-.29-.17-.43-.26-.57-.36-1.13-.7-1.7-1.04-.34-.2-.67-.42-1.01-.62-.24-.14-.49-.28-.73-.42-.79-.46-1.58-.9-2.37-1.33-.02-.01-.05-.02-.07-.04-.94-.51-1.87-.99-2.8-1.45-.05-.03-.11-.06-.16-.08-.21-.1-.41-.19-.62-.29-.67-.33-1.34-.64-2.01-.95-.13-.06-.25-.12-.38-.18-.2-.09-.4-.17-.6-.26-.61-.27-1.22-.53-1.82-.77-.19-.08-.37-.16-.56-.24-.14-.06-.28-.1-.43-.16-.66-.26-1.31-.5-1.96-.74-.2-.07-.4-.16-.6-.23-.06-.02-.13-.04-.19-.06-.92-.32-1.83-.62-2.74-.9-.03,0-.05-.02-.08-.03-.73-.22-1.45-.43-2.17-.62-.02-.09-.05-.18-.07-.26-.11-.39-.23-.77-.34-1.16-.3-1.07-.61-2.14-.94-3.2-.03-.1-.06-.21-.09-.31-.15-.49-.32-.98-.47-1.47-.28-.89-.56-1.77-.85-2.66-.05-.16-.1-.31-.15-.47-.16-.49-.34-.97-.51-1.46-.28-.82-.56-1.64-.86-2.46-.07-.2-.13-.39-.2-.59-.18-.49-.37-.98-.55-1.47-.28-.74-.55-1.49-.84-2.23-.08-.21-.16-.43-.24-.64-.19-.48-.39-.96-.58-1.45-.29-.72-.57-1.44-.87-2.16-.09-.22-.18-.44-.27-.67-.2-.48-.41-.96-.62-1.45-.3-.7-.59-1.4-.9-2.09-.1-.22-.19-.44-.28-.66-.2-.46-.42-.91-.62-1.36-.34-.75-.68-1.5-1.02-2.25-.11-.24-.21-.47-.32-.71-.19-.4-.38-.79-.57-1.18-.4-.84-.81-1.69-1.22-2.53-.14-.28-.27-.57-.41-.85-.15-.3-.31-.6-.47-.9-.53-1.04-1.06-2.08-1.6-3.11-.18-.34-.35-.69-.53-1.03-.12-.23-.25-.45-.37-.67-.34-.63-.68-1.26-1.03-1.88-.39-.7-.77-1.41-1.17-2.11-.35-.62-.71-1.25-1.07-1.87-.25-.43-.49-.86-.73-1.28-.11-.18-.22-.36-.33-.54-1.04-1.76-2.09-3.5-3.18-5.23-.15-.24-.31-.48-.46-.72-.97-1.54-1.97-3.06-2.98-4.56-.16-.24-.31-.49-.47-.72-.17-.25-.34-.49-.51-.74-.4-.58-.8-1.16-1.2-1.74-.46-.66-.92-1.31-1.38-1.96-.41-.57-.82-1.15-1.24-1.72-.25-.35-.5-.7-.76-1.05-.16-.21-.32-.41-.48-.62-.96-1.28-1.93-2.56-2.91-3.81-.14-.18-.28-.37-.42-.55-.04-.05-.08-.1-.12-.15-1.05-1.32-2.1-2.63-3.18-3.93-.05-.06-.09-.11-.14-.17-.26-.31-.53-.61-.79-.92-.74-.88-1.48-1.76-2.24-2.62-.11-.13-.22-.26-.34-.39-.29-.33-.58-.64-.87-.96-.68-.77-1.37-1.53-2.06-2.28-.18-.19-.35-.4-.53-.59-.25-.27-.51-.53-.77-.8-.69-.74-1.39-1.47-2.09-2.19-.24-.25-.48-.51-.73-.77-.19-.2-.39-.39-.59-.58-.77-.77-1.54-1.54-2.32-2.29-.29-.28-.57-.57-.86-.85-.11-.11-.23-.21-.35-.32-1.03-.98-2.07-1.95-3.11-2.89-.14-.13-.28-.27-.42-.39-.02-.02-.04-.03-.06-.05-1.2-1.08-2.42-2.14-3.65-3.18-.08-.07-.16-.14-.24-.21-.29-.25-.59-.47-.88-.72-.85-.71-1.71-1.41-2.57-2.1-.17-.14-.34-.28-.51-.41-.3-.24-.6-.46-.91-.69-.75-.58-1.5-1.15-2.25-1.72-.25-.18-.49-.38-.73-.56-.26-.19-.52-.36-.77-.55-.71-.51-1.42-1.02-2.13-1.52-.31-.21-.61-.44-.92-.65-.21-.14-.42-.28-.63-.42-.7-.47-1.4-.93-2.1-1.38-.35-.23-.7-.47-1.06-.7-.17-.11-.34-.21-.51-.31-.67-.42-1.35-.83-2.03-1.24-.4-.24-.79-.49-1.19-.73-.29-.17-.58-.34-.87-.5-.87-.5-1.73-.98-2.59-1.45-.07-.04-.15-.08-.22-.12-.13-.07-.25-.13-.38-.2-.97-.52-1.93-1.02-2.89-1.5-.12-.06-.24-.13-.36-.18-.05-.03-.1-.05-.15-.07-1.05-.52-2.09-1-3.13-1.47-.1-.05-.2-.1-.3-.14-.13-.06-.26-.11-.39-.16-1.04-.46-2.08-.91-3.11-1.32-.01,0-.03-.01-.05-.02,0,0,0,0-.01,0-1.07-.43-2.14-.82-3.19-1.2-.12-.04-.25-.1-.37-.14-.09-.03-.18-.06-.28-.09-1.03-.36-2.06-.7-3.08-1.01-.06-.02-.13-.04-.19-.06-.11-.03-.22-.06-.33-.09-1.08-.32-2.15-.62-3.21-.89-.04,0-.07-.02-.11-.03-.01,0-.02,0-.03,0-1.12-.28-2.23-.52-3.33-.74-.11-.02-.22-.05-.32-.07-.11-.02-.21-.04-.32-.06-.29-.05-.57-.1-.86-.15-.38-.07-.76-.13-1.13-.19-.29-.05-.58-.09-.87-.13-.21-.03-.42-.07-.63-.09-.15-.02-.3-.03-.45-.05-.33-.04-.67-.08-1-.12-.34-.04-.68-.07-1.02-.11-.33-.03-.66-.06-.99-.08-.18-.01-.37-.03-.55-.05-.14,0-.28-.01-.42-.02-.37-.02-.74-.04-1.11-.06-.31-.01-.62-.03-.92-.03-.37,0-.73-.01-1.1-.02-.2,0-.4,0-.59,0-.1,0-.19,0-.28,0-.49,0-.99.02-1.48.04-.21,0-.43.01-.64.02-.7.03-1.39.08-2.07.14,0,0-.02,0-.02,0-.04,0-.07,0-.11.01-.74.07-1.46.16-2.19.25-.22.03-.43.06-.65.09-.62.09-1.23.2-1.84.31-.11.02-.23.04-.34.06-.03,0-.07.02-.1.02-.92.19-1.83.4-2.73.64-.16.04-.32.08-.48.13-.88.24-1.75.51-2.6.81-.06.02-.13.04-.19.06-.15.05-.29.11-.43.16-.38.14-.75.28-1.12.42-.23.09-.47.19-.7.28-.37.15-.74.31-1.1.47-.22.1-.44.2-.66.3-.39.18-.78.37-1.16.57-.18.09-.37.18-.55.28-.56.29-1.12.6-1.67.92l-7.05,4.1c.55-.32,1.11-.62,1.67-.92.18-.1.37-.18.55-.28.38-.19.77-.39,1.16-.57.22-.1.44-.2.67-.3.36-.16.73-.32,1.1-.47.23-.1.47-.19.7-.28.37-.15.75-.29,1.12-.42.21-.07.41-.15.62-.22.85-.29,1.72-.56,2.6-.81.16-.04.32-.09.48-.13.9-.24,1.81-.45,2.73-.64.15-.03.3-.05.44-.08.61-.12,1.22-.22,1.84-.31.21-.03.43-.06.65-.09.72-.1,1.45-.19,2.19-.25.04,0,.09-.01.13-.01.69-.06,1.38-.11,2.07-.14.21-.01.43-.01.64-.02.49-.02.98-.03,1.48-.04.29,0,.58,0,.88,0,.37,0,.73,0,1.1.02.31,0,.61.02.92.03.37.02.74.03,1.11.06.32.02.65.04.97.07.33.03.66.05.99.08.34.03.68.07,1.02.11.33.04.66.08,1,.12.36.05.72.09,1.08.15.29.04.58.08.87.13.38.06.75.12,1.13.19.29.05.57.1.86.15.21.04.43.09.64.13,1.1.22,2.21.46,3.33.74.05.01.09.03.14.04,1.06.27,2.14.57,3.22.89.17.05.35.1.52.15,1.02.31,2.05.65,3.08,1.01.22.07.43.15.65.23,1.06.38,2.12.77,3.19,1.2.02,0,.03.01.05.02,1.03.41,2.07.86,3.11,1.32.23.1.46.2.69.3,1.04.47,2.08.96,3.13,1.47.17.08.34.17.51.26.96.48,1.92.98,2.89,1.5.2.11.4.21.61.32.86.47,1.72.95,2.59,1.45.69.4,1.37.82,2.06,1.23.68.41,1.35.82,2.03,1.24.53.33,1.05.67,1.57,1.01.7.45,1.4.91,2.09,1.38.52.35,1.03.71,1.55,1.07.71.5,1.42,1,2.13,1.52.5.37,1.01.74,1.51,1.11.75.56,1.5,1.13,2.25,1.71.47.37.95.73,1.42,1.11.86.69,1.71,1.39,2.57,2.1.37.31.75.61,1.12.92,1.22,1.04,2.44,2.1,3.64,3.18.16.15.32.3.49.45,1.04.95,2.08,1.91,3.1,2.89.4.39.8.78,1.2,1.17.78.76,1.55,1.52,2.32,2.29.44.45.88.9,1.32,1.35.7.72,1.39,1.45,2.08,2.18.44.46.87.93,1.31,1.4.69.75,1.37,1.51,2.05,2.28.4.45.81.9,1.21,1.36.75.86,1.5,1.74,2.24,2.62.31.37.62.72.93,1.09,1.07,1.29,2.13,2.6,3.18,3.92.18.23.36.47.54.7.98,1.26,1.95,2.53,2.91,3.81.41.56.83,1.11,1.24,1.68.41.57.83,1.14,1.24,1.71.47.65.93,1.31,1.39,1.97.4.58.8,1.15,1.2,1.73.33.49.66.98.99,1.47,1.01,1.51,2,3.02,2.98,4.56.15.24.31.48.46.72,1.08,1.72,2.14,3.47,3.18,5.23.36.61.72,1.22,1.07,1.84.36.62.71,1.24,1.06,1.86.4.7.78,1.41,1.17,2.11.34.63.69,1.25,1.02,1.88.3.57.6,1.13.9,1.7.54,1.03,1.08,2.07,1.6,3.11.29.58.59,1.17.88,1.76.41.84.82,1.68,1.22,2.53.3.63.6,1.26.89,1.89.35.75.69,1.5,1.03,2.25.3.67.61,1.35.9,2.03.3.7.6,1.4.9,2.09.3.7.6,1.41.89,2.11.3.72.58,1.44.87,2.16.28.7.56,1.39.82,2.09.28.74.56,1.48.84,2.22.26.69.51,1.37.76,2.06.29.82.57,1.63.86,2.45.22.65.45,1.29.66,1.94.29.88.57,1.77.85,2.65.19.59.38,1.19.56,1.78.33,1.07.63,2.14.94,3.2.14.47.28.95.41,1.42h0s0,0,0,0c.75.2,1.5.41,2.25.64.91.28,1.82.58,2.74.9.26.09.53.19.79.29.65.24,1.31.48,1.96.74.33.13.66.26.99.4.61.25,1.21.51,1.82.77.33.14.65.29.98.43.67.3,1.33.62,2.01.94.26.13.52.25.78.38.93.46,1.86.94,2.8,1.45.81.44,1.62.89,2.44,1.36.58.34,1.16.69,1.74,1.04.57.34,1.14.69,1.7,1.04.44.28.89.57,1.33.86.59.38,1.17.77,1.76,1.16.44.3.87.6,1.31.9.6.42,1.2.84,1.79,1.27.43.31.85.62,1.28.94.63.47,1.26.95,1.89,1.44.4.31.8.62,1.2.94.72.57,1.43,1.16,2.14,1.75.32.27.64.53.96.8,1.03.87,2.05,1.76,3.07,2.68.12.11.24.23.37.34.89.81,1.78,1.63,2.66,2.47.34.32.67.65,1.01.98.66.64,1.31,1.28,1.96,1.93.37.38.74.76,1.11,1.14.59.61,1.17,1.22,1.75,1.84.37.39.74.79,1.11,1.19.58.63,1.16,1.27,1.73,1.92.34.38.68.76,1.02,1.15.63.73,1.26,1.46,1.88,2.2.26.31.53.62.79.93.9,1.08,1.79,2.18,2.67,3.29.14.18.27.35.41.53.84,1.07,1.66,2.15,2.48,3.25.36.48.71.96,1.06,1.44.34.47.69.94,1.03,1.42.4.56.79,1.12,1.18,1.68.33.48.67.96.99,1.44.27.4.54.8.8,1.2.82,1.23,1.63,2.47,2.43,3.71.16.25.32.5.48.75.91,1.44,1.79,2.9,2.66,4.37.31.52.61,1.05.92,1.58.31.53.62,1.06.92,1.6.33.59.65,1.18.98,1.76.3.54.59,1.08.88,1.62.25.46.48.92.73,1.38.47.89.93,1.78,1.38,2.68.25.49.5.99.74,1.49.35.71.69,1.42,1.03,2.14.25.53.51,1.07.76,1.6.29.63.58,1.27.86,1.9.26.57.51,1.14.76,1.71.26.58.5,1.17.75,1.76.25.59.5,1.19.75,1.78.25.6.49,1.21.73,1.81.23.59.47,1.18.7,1.77.24.62.47,1.25.71,1.88.21.58.43,1.16.64,1.74.25.68.48,1.37.72,2.05.19.55.38,1.1.56,1.65.24.73.48,1.47.71,2.2.16.51.33,1.02.48,1.53.26.86.51,1.71.75,2.57.13.46.27.92.4,1.38h0s21.11,12.19,21.11,12.19c.8.46,1.59.94,2.38,1.44.05.03.1.06.15.09.77.49,1.54,1,2.3,1.53.26.18.52.37.77.55.51.36,1.02.73,1.52,1.1.31.23.61.47.92.7.46.35.91.7,1.36,1.07.33.26.66.53.99.81.43.36.86.72,1.29,1.09.34.29.67.58,1,.88.42.37.83.75,1.25,1.13.33.31.67.61,1,.93.42.4.84.8,1.25,1.21.31.3.61.6.92.91.43.43.85.87,1.28,1.32.28.29.56.58.84.88.49.52.97,1.06,1.46,1.6.19.22.39.43.58.65.68.77,1.35,1.55,2,2.34.1.12.2.25.3.37.56.68,1.11,1.36,1.66,2.06.69.88,1.37,1.77,2.04,2.68.01.02.03.04.04.06.95,1.29,1.87,2.61,2.77,3.95.21.32.43.63.64.95.32.49.64.99.96,1.48.29.45.57.89.85,1.34.31.5.62,1.01.92,1.52.25.42.5.84.75,1.26.73,1.24,1.43,2.5,2.11,3.76.25.46.49.93.73,1.4.25.49.51.98.76,1.47.35.69.69,1.39,1.02,2.09.11.23.22.45.33.67.42.9.83,1.81,1.23,2.71.11.24.21.48.31.72.29.67.58,1.35.85,2.03.13.31.25.62.37.93.26.65.51,1.31.76,1.96.11.28.21.56.32.84.32.86.62,1.73.91,2.59.02.07.05.15.08.22.31.94.61,1.88.9,2.82.09.3.18.6.26.9.19.65.38,1.3.55,1.95.1.36.19.71.28,1.07.16.6.31,1.21.45,1.81.09.36.17.72.25,1.07.14.62.27,1.24.4,1.86.07.33.14.66.2.98.16.82.3,1.63.43,2.44.02.11.04.23.06.34.15.93.27,1.85.39,2.77.03.26.06.52.09.78.07.66.14,1.32.2,1.97.03.32.05.63.07.94.05.62.08,1.24.11,1.86.01.3.03.6.04.89.03.88.05,1.75.05,2.62v3.83c-.01.91-.04,1.81-.08,2.69-.01.25-.03.49-.05.73-.04.61-.08,1.21-.13,1.8-.03.34-.07.67-.1,1.01-.05.5-.11.99-.18,1.48-.05.36-.1.71-.16,1.07-.07.45-.15.89-.23,1.33-.07.39-.15.78-.23,1.17-.08.39-.17.78-.27,1.17-.11.45-.23.9-.35,1.34-.1.34-.19.69-.3,1.02-.16.53-.34,1.04-.52,1.55-.1.27-.19.55-.29.82-.32.85-.67,1.68-1.05,2.48-.29.61-.59,1.21-.91,1.79,0,0,0,0,0,.01-.33.59-.67,1.16-1.03,1.72-.07.11-.15.22-.22.33-.27.41-.55.81-.84,1.2-.12.16-.23.31-.35.46-.27.35-.55.69-.84,1.03-.11.13-.22.26-.33.38-.39.44-.8.87-1.22,1.27-.06.06-.12.11-.18.17-.36.35-.74.68-1.12,1-.14.12-.28.23-.42.34-.33.26-.66.51-1,.76-.14.1-.28.2-.42.3-.47.32-.95.64-1.45.92l7.05-4.1c.5-.29.98-.6,1.45-.92.14-.1.28-.2.42-.3.34-.24.67-.5,1-.76.14-.11.28-.23.42-.34.38-.32.76-.65,1.12-1,.06-.06.12-.11.18-.17.42-.41.82-.83,1.22-1.27.11-.12.22-.26.33-.38.29-.33.57-.68.84-1.03.12-.15.24-.31.35-.46.29-.39.57-.79.84-1.2.07-.11.15-.21.22-.33.02-.03.04-.06.07-.1.33-.52.65-1.06.96-1.62,0,0,0,0,0-.01.31-.55.6-1.12.88-1.71.01-.03.02-.06.04-.08.38-.8.72-1.63,1.05-2.48.03-.07.06-.14.09-.21.07-.2.13-.41.2-.61.18-.51.35-1.02.52-1.55.04-.14.1-.27.14-.41.06-.2.1-.41.16-.61.12-.44.24-.89.35-1.34.04-.18.1-.36.14-.54.05-.2.08-.42.12-.62.08-.39.16-.78.23-1.17.04-.2.08-.4.12-.6.04-.24.07-.49.11-.73.06-.35.11-.71.16-1.07.02-.18.06-.36.08-.54.04-.31.06-.63.1-.94.04-.34.07-.67.1-1.01.01-.14.03-.27.04-.41.04-.46.06-.93.09-1.39.01-.25.03-.49.05-.73,0-.06,0-.12.01-.18.03-.77.05-1.56.06-2.36,0-.05,0-.09,0-.14v-3.83c.01-.73,0-1.47-.02-2.2Z"/>
        </g>
        <g>
          <path class="st5" d="M827.93,630.7c0-.14-.01-.28-.02-.42-.01-.3-.03-.6-.04-.9-.02-.35-.03-.7-.05-1.05-.02-.27-.04-.54-.06-.81-.02-.32-.05-.63-.08-.95-.02-.21-.03-.41-.05-.62-.04-.45-.1-.9-.15-1.35-.03-.26-.06-.52-.09-.79-.01-.09-.02-.17-.03-.26-.1-.82-.22-1.63-.35-2.45,0-.02,0-.04,0-.05-.02-.12-.04-.24-.06-.36-.11-.68-.23-1.37-.35-2.05-.02-.12-.05-.25-.07-.37-.06-.33-.13-.66-.2-.98-.08-.4-.16-.8-.24-1.2-.05-.22-.11-.44-.16-.67-.08-.36-.16-.71-.25-1.07-.07-.27-.12-.55-.19-.82-.08-.33-.17-.66-.26-.99-.09-.36-.19-.72-.28-1.08-.05-.18-.09-.35-.14-.53-.13-.47-.27-.94-.41-1.4-.09-.31-.18-.61-.27-.92-.03-.09-.05-.17-.07-.26-.26-.84-.53-1.68-.81-2.53,0,0,0-.02-.01-.03-.03-.08-.06-.16-.08-.24-.25-.74-.51-1.48-.77-2.22-.04-.12-.09-.23-.13-.35-.1-.28-.21-.56-.32-.84-.15-.4-.3-.8-.45-1.2-.1-.26-.21-.51-.31-.76-.12-.31-.25-.62-.37-.93-.09-.23-.18-.45-.27-.68-.19-.45-.38-.9-.58-1.35-.1-.24-.21-.49-.31-.73-.04-.08-.07-.17-.11-.25-.35-.79-.71-1.58-1.07-2.36-.02-.03-.03-.07-.05-.1-.11-.23-.22-.45-.33-.68-.29-.6-.57-1.2-.87-1.8-.05-.09-.1-.19-.15-.28-.25-.49-.5-.98-.76-1.47-.2-.39-.4-.79-.61-1.18-.04-.07-.08-.14-.12-.21-.68-1.27-1.39-2.52-2.11-3.76-.06-.11-.12-.21-.18-.32-.19-.32-.38-.62-.57-.94-.31-.51-.61-1.02-.92-1.52-.28-.45-.56-.89-.85-1.34-.32-.5-.64-.99-.96-1.48-.11-.16-.21-.33-.32-.49-.1-.15-.22-.3-.32-.45-.9-1.34-1.82-2.66-2.77-3.95,0,0,0,0,0,0,0-.01-.02-.02-.03-.03-.67-.91-1.36-1.81-2.05-2.7-.03-.04-.06-.08-.09-.12-.51-.65-1.04-1.29-1.56-1.93-.1-.12-.2-.25-.3-.38,0,0-.01-.02-.02-.02-.62-.75-1.25-1.48-1.89-2.21-.03-.04-.06-.07-.09-.11-.2-.22-.4-.44-.59-.66-.4-.45-.8-.9-1.21-1.34-.08-.08-.16-.16-.23-.24-.28-.3-.56-.59-.84-.88-.31-.32-.61-.65-.92-.97-.12-.12-.23-.23-.35-.35-.3-.31-.61-.61-.92-.91-.26-.26-.53-.53-.79-.78-.15-.14-.31-.28-.46-.42-.33-.31-.66-.62-1-.93-.23-.21-.46-.43-.69-.64-.18-.16-.37-.32-.55-.48-.33-.3-.67-.59-1.01-.88-.21-.18-.41-.36-.61-.53-.22-.19-.45-.36-.67-.55-.33-.27-.66-.54-.99-.81-.17-.14-.34-.28-.51-.42-.28-.22-.56-.43-.84-.64-.31-.24-.62-.48-.93-.71-.13-.09-.25-.19-.37-.29-.38-.28-.76-.54-1.14-.81-.26-.18-.52-.37-.78-.56-.07-.05-.13-.1-.2-.14-.69-.47-1.38-.93-2.08-1.37,0,0-.01,0-.02-.01-.05-.03-.1-.06-.15-.09-.63-.4-1.26-.79-1.89-1.16-.16-.09-.32-.19-.48-.28l-21.11-12.19c-.03-.11-.06-.21-.09-.32-.1-.36-.21-.72-.31-1.07-.24-.85-.49-1.71-.75-2.56-.03-.1-.06-.2-.09-.31-.13-.41-.26-.82-.39-1.22-.23-.74-.47-1.48-.71-2.21-.05-.14-.09-.29-.14-.43-.13-.4-.28-.8-.42-1.2-.24-.69-.47-1.38-.72-2.07-.06-.18-.12-.36-.19-.53-.14-.4-.3-.8-.45-1.19-.23-.63-.47-1.26-.71-1.88-.07-.19-.14-.39-.22-.58-.15-.39-.32-.79-.47-1.18-.24-.61-.48-1.21-.73-1.82-.08-.2-.16-.4-.24-.6-.16-.39-.34-.79-.51-1.18-.25-.59-.5-1.18-.75-1.76-.09-.2-.17-.4-.25-.59-.17-.37-.34-.75-.51-1.12-.29-.63-.57-1.27-.86-1.9-.1-.21-.19-.42-.29-.63-.15-.33-.32-.65-.47-.97-.34-.71-.68-1.43-1.03-2.14-.12-.25-.24-.5-.36-.75-.12-.25-.25-.49-.38-.73-.45-.9-.91-1.79-1.38-2.68-.15-.29-.29-.58-.45-.87-.09-.17-.18-.34-.28-.51-.29-.55-.59-1.09-.89-1.63-.32-.58-.64-1.17-.97-1.75-.3-.54-.61-1.07-.92-1.61-.22-.39-.44-.78-.67-1.16-.08-.14-.17-.27-.25-.41-.87-1.47-1.75-2.93-2.66-4.37-.16-.25-.32-.49-.47-.74-.8-1.25-1.61-2.49-2.44-3.73-.14-.2-.27-.42-.41-.62-.13-.19-.26-.38-.39-.57-.33-.48-.67-.96-1-1.44-.39-.56-.78-1.12-1.18-1.67-.34-.48-.68-.95-1.03-1.42-.23-.31-.45-.62-.67-.93-.13-.17-.26-.34-.39-.51-.82-1.09-1.64-2.18-2.48-3.25-.11-.14-.21-.28-.32-.42-.03-.04-.06-.07-.08-.1-.88-1.11-1.77-2.21-2.67-3.3-.04-.05-.08-.1-.12-.15-.22-.26-.44-.51-.66-.77-.63-.74-1.26-1.48-1.89-2.21-.1-.11-.19-.23-.29-.34-.24-.27-.49-.54-.73-.81-.57-.65-1.15-1.29-1.73-1.92-.15-.17-.3-.34-.46-.51-.21-.23-.43-.45-.64-.67-.58-.62-1.17-1.23-1.75-1.84-.21-.22-.41-.44-.62-.65-.16-.16-.33-.32-.49-.48-.65-.65-1.3-1.3-1.96-1.94-.24-.24-.48-.48-.72-.71-.09-.09-.19-.18-.29-.27-.88-.84-1.76-1.66-2.65-2.46-.11-.1-.22-.21-.33-.31-.01-.01-.03-.03-.04-.04-1.01-.91-2.04-1.8-3.07-2.68-.07-.06-.14-.12-.21-.18-.25-.21-.5-.41-.75-.61-.71-.59-1.43-1.18-2.15-1.75-.15-.12-.29-.24-.44-.36-.25-.2-.51-.39-.77-.58-.63-.49-1.25-.97-1.89-1.44-.21-.16-.42-.32-.62-.48-.22-.16-.44-.31-.65-.46-.59-.43-1.19-.86-1.79-1.27-.26-.18-.52-.37-.78-.55-.18-.12-.36-.23-.53-.35-.59-.4-1.17-.78-1.76-1.16-.3-.19-.6-.4-.9-.59-.14-.09-.29-.17-.43-.26-.57-.36-1.14-.7-1.71-1.05-.34-.2-.67-.42-1-.61-.24-.14-.49-.28-.73-.42-.79-.46-1.58-.9-2.37-1.33-.02-.01-.05-.02-.07-.04-.94-.51-1.87-.99-2.8-1.45-.06-.03-.11-.06-.17-.09-.21-.1-.41-.19-.62-.29-.67-.32-1.34-.64-2-.94-.13-.06-.26-.12-.38-.18-.2-.09-.4-.17-.6-.25-.61-.27-1.23-.53-1.84-.78-.19-.08-.38-.16-.56-.24-.14-.06-.28-.1-.42-.16-.67-.26-1.34-.51-2-.75-.19-.07-.39-.15-.59-.22-.06-.02-.12-.04-.18-.06-.92-.32-1.84-.62-2.75-.9-.03-.01-.07-.02-.1-.03-.71-.21-1.42-.42-2.12-.6-.03-.09-.05-.19-.08-.28-.11-.39-.23-.78-.34-1.17-.3-1.06-.61-2.13-.93-3.19-.03-.11-.06-.21-.09-.32-.15-.49-.32-.98-.47-1.46-.28-.89-.56-1.77-.85-2.66-.05-.16-.1-.31-.15-.47-.16-.49-.34-.97-.51-1.46-.28-.82-.56-1.64-.86-2.47-.07-.2-.13-.39-.21-.59-.18-.49-.37-.97-.55-1.46-.28-.74-.55-1.49-.84-2.23-.08-.22-.16-.43-.24-.65-.19-.48-.39-.96-.58-1.45-.29-.72-.57-1.44-.87-2.16-.09-.22-.18-.44-.27-.67-.2-.48-.41-.96-.62-1.44-.3-.7-.59-1.4-.9-2.1-.1-.22-.19-.44-.28-.66-.2-.45-.41-.91-.62-1.36-.34-.75-.68-1.5-1.03-2.25-.11-.24-.21-.47-.32-.71-.19-.39-.38-.79-.57-1.18-.4-.85-.81-1.69-1.23-2.53-.14-.28-.27-.57-.41-.85-.15-.3-.31-.6-.46-.9-.53-1.04-1.06-2.08-1.61-3.12-.18-.34-.35-.68-.53-1.02-.12-.23-.25-.45-.37-.67-.34-.63-.68-1.26-1.03-1.89-.39-.7-.77-1.41-1.17-2.11-.35-.62-.71-1.25-1.07-1.87-.25-.43-.48-.86-.73-1.28-.11-.18-.22-.36-.33-.54-1.04-1.76-2.09-3.5-3.18-5.23-.15-.24-.31-.48-.46-.72-.97-1.54-1.97-3.06-2.98-4.56-.16-.24-.31-.48-.47-.72-.17-.25-.34-.49-.51-.74-.4-.58-.8-1.16-1.2-1.74-.46-.66-.92-1.31-1.38-1.96-.41-.58-.83-1.15-1.24-1.72-.25-.35-.5-.7-.76-1.05-.16-.21-.32-.41-.47-.62-.96-1.28-1.93-2.56-2.91-3.81-.14-.18-.28-.37-.42-.55-.04-.05-.08-.1-.12-.15-1.05-1.32-2.1-2.63-3.18-3.92-.05-.06-.09-.11-.14-.17-.26-.31-.52-.61-.78-.92-.74-.88-1.49-1.76-2.24-2.63-.11-.13-.22-.26-.33-.39-.29-.33-.58-.64-.87-.96-.68-.77-1.37-1.53-2.06-2.28-.18-.19-.35-.4-.53-.59-.25-.27-.52-.54-.77-.81-.69-.74-1.39-1.46-2.09-2.19-.24-.25-.48-.51-.73-.77-.2-.2-.4-.39-.59-.59-.77-.77-1.54-1.53-2.31-2.29-.29-.28-.57-.57-.86-.85-.12-.11-.23-.21-.35-.32-1.02-.97-2.05-1.93-3.08-2.87-.15-.14-.3-.28-.45-.42-.02-.02-.04-.04-.06-.05-1.2-1.08-2.42-2.14-3.64-3.18-.08-.07-.16-.14-.24-.21-.29-.25-.59-.48-.88-.72-.85-.71-1.71-1.41-2.57-2.09-.17-.14-.34-.28-.51-.41-.3-.24-.61-.46-.91-.69-.75-.58-1.5-1.15-2.25-1.72-.25-.18-.49-.38-.73-.56-.26-.19-.52-.36-.77-.55-.71-.51-1.42-1.02-2.13-1.52-.31-.21-.61-.44-.92-.65-.21-.14-.42-.28-.63-.42-.69-.47-1.39-.93-2.09-1.38-.36-.23-.71-.48-1.06-.7-.17-.11-.34-.21-.51-.31-.67-.42-1.35-.83-2.02-1.24-.4-.24-.79-.49-1.19-.73-.29-.17-.58-.34-.87-.5-.87-.5-1.73-.98-2.59-1.45-.07-.04-.15-.09-.23-.13-.13-.07-.26-.13-.39-.2-.96-.52-1.93-1.02-2.88-1.49-.12-.06-.24-.13-.36-.19-.05-.03-.1-.05-.16-.07-1.05-.52-2.09-1-3.12-1.47-.1-.05-.2-.1-.3-.14-.13-.06-.26-.11-.39-.16-1.04-.46-2.08-.91-3.11-1.32-.01,0-.03-.01-.04-.02,0,0,0,0,0,0-1.07-.43-2.13-.82-3.19-1.2-.12-.04-.25-.1-.37-.14-.09-.03-.18-.06-.28-.09-1.03-.36-2.06-.7-3.08-1.01-.06-.02-.13-.04-.19-.06-.11-.03-.22-.06-.33-.09-1.08-.32-2.15-.62-3.22-.89-.04,0-.07-.02-.11-.03-.01,0-.02,0-.03,0-1.12-.28-2.23-.52-3.33-.74-.11-.02-.21-.05-.32-.07-.1-.02-.21-.04-.31-.06-.29-.05-.58-.1-.86-.15-.38-.07-.76-.13-1.13-.19-.29-.05-.58-.09-.86-.13-.21-.03-.42-.07-.63-.09-.15-.02-.3-.03-.45-.05-.33-.04-.67-.08-1-.12-.34-.04-.68-.07-1.02-.11-.33-.03-.66-.06-.99-.08-.18-.01-.37-.03-.55-.05-.14,0-.28-.01-.42-.02-.37-.02-.74-.04-1.11-.06-.31-.01-.62-.03-.93-.03-.37,0-.73-.01-1.09-.02-.2,0-.4,0-.6,0-.1,0-.19,0-.28,0-.49,0-.98.02-1.47.04-.21,0-.43.01-.64.02-.7.03-1.39.08-2.07.14,0,0-.02,0-.03,0-.04,0-.08,0-.11.01-.73.07-1.46.15-2.18.25-.22.03-.43.06-.65.09-.62.09-1.23.2-1.83.31-.11.02-.23.04-.35.06-.03,0-.07.02-.1.02-.92.19-1.83.4-2.73.64-.16.04-.32.08-.48.13-.88.24-1.75.51-2.6.81-.06.02-.13.04-.19.06-.15.05-.29.11-.43.16-.38.14-.75.28-1.12.42-.24.09-.47.19-.7.28-.37.15-.74.31-1.1.47-.22.1-.44.2-.66.3-.39.18-.78.37-1.16.57-.18.09-.37.18-.55.28-.56.29-1.12.6-1.67.92l-176.2,102.4c.55-.32,1.11-.62,1.67-.92.18-.1.37-.18.55-.28.38-.19.77-.39,1.16-.57.22-.1.44-.2.67-.3.36-.16.73-.32,1.1-.47.23-.1.47-.19.7-.28.37-.15.74-.29,1.12-.42.21-.07.41-.15.62-.22.85-.29,1.72-.56,2.6-.81.16-.04.32-.09.48-.13.9-.24,1.81-.45,2.73-.64.15-.03.3-.05.45-.08.61-.12,1.22-.22,1.83-.31.22-.03.43-.06.65-.09.7-.1,1.4-.18,2.11-.25l-87.41,50.8c.74-.43,1.5-.82,2.27-1.18.25-.12.52-.22.77-.33.53-.23,1.06-.46,1.61-.66.44-.16.89-.31,1.35-.45.27-.09.54-.18.82-.26.57-.16,1.14-.3,1.72-.42.19-.04.37-.09.56-.13.72-.15,1.45-.26,2.19-.36.2-.03.4-.05.59-.07.67-.08,1.36-.14,2.05-.18.07,0,.14-.01.21-.01.7-.03,1.4-.04,2.11-.03.51,0,1.03.03,1.55.05.42.02.84.03,1.26.07.43.03.87.09,1.31.13.48.05.96.1,1.44.17.41.06.82.13,1.23.2.52.09,1.04.18,1.56.29.35.07.71.16,1.07.24.56.13,1.12.27,1.68.42.36.1.71.19,1.07.3.61.18,1.23.37,1.85.57.29.1.58.19.88.29,1.83.63,3.68,1.37,5.56,2.23.29.13.58.28.88.41.66.31,1.33.64,1.99.98.33.17.66.34.99.51.88.47,1.77.94,2.67,1.46h0l81.13-47.15c.36.17.71.33,1.07.51.17.08.34.17.51.26.96.48,1.92.98,2.88,1.49.2.11.41.22.61.33.86.47,1.72.95,2.59,1.45.69.4,1.37.82,2.06,1.23.68.41,1.35.82,2.02,1.24.53.33,1.05.68,1.58,1.02.7.45,1.39.91,2.09,1.38.52.35,1.04.71,1.55,1.07.71.5,1.42,1,2.13,1.51.5.37,1.01.74,1.51,1.11.75.56,1.5,1.13,2.25,1.71.47.37.95.73,1.42,1.11.86.68,1.71,1.39,2.56,2.09.37.31.75.61,1.12.93,1.22,1.04,2.44,2.09,3.64,3.18.17.15.33.31.5.46,1.04.94,2.07,1.9,3.09,2.87.4.39.8.78,1.2,1.17.78.76,1.55,1.52,2.32,2.29.44.45.88.9,1.32,1.35.7.72,1.39,1.45,2.08,2.18.44.47.87.93,1.31,1.4.69.75,1.37,1.51,2.05,2.28.4.45.81.9,1.21,1.36.75.86,1.5,1.74,2.24,2.62.31.36.62.72.92,1.09,1.07,1.29,2.13,2.6,3.18,3.92.18.23.36.47.54.7.98,1.26,1.95,2.53,2.91,3.81.41.56.83,1.11,1.23,1.67.42.57.83,1.14,1.24,1.71.47.65.93,1.31,1.39,1.97.4.58.8,1.15,1.2,1.73.33.49.66.98.99,1.47,1.01,1.51,2,3.03,2.98,4.56.15.24.31.48.46.72,1.09,1.73,2.14,3.47,3.18,5.23.36.61.71,1.22,1.06,1.83.36.62.72,1.24,1.07,1.87.39.7.78,1.41,1.17,2.11.34.63.69,1.25,1.02,1.88.3.57.6,1.14.9,1.7.54,1.03,1.08,2.07,1.6,3.11.3.59.59,1.17.88,1.76.41.84.82,1.68,1.22,2.52.3.63.6,1.26.9,1.9.35.75.69,1.5,1.02,2.25.3.68.61,1.35.91,2.03.31.7.6,1.4.9,2.1.3.7.6,1.4.89,2.11.3.72.58,1.44.87,2.16.28.7.56,1.39.82,2.09.28.74.56,1.48.84,2.22.25.68.51,1.37.76,2.06.29.82.57,1.64.86,2.45.22.65.45,1.29.66,1.94.29.88.57,1.77.85,2.65.19.6.38,1.19.56,1.79.32,1.06.63,2.12.93,3.17.14.49.29.97.42,1.46.74.2,1.48.41,2.22.64.91.28,1.83.58,2.75.9.25.09.51.19.76.28.67.24,1.33.49,2.01.75.33.13.65.26.98.4.61.25,1.22.51,1.83.78.33.14.66.29.99.44.66.3,1.33.62,2,.94.26.13.53.25.79.38.93.46,1.86.94,2.8,1.45.81.44,1.63.89,2.44,1.36.58.34,1.16.69,1.74,1.04.57.34,1.14.69,1.7,1.04.45.28.89.57,1.33.86.59.38,1.17.77,1.76,1.16.44.3.87.6,1.31.9.6.42,1.2.84,1.79,1.27.43.31.85.62,1.27.94.63.47,1.26.95,1.89,1.44.4.31.8.62,1.2.94.72.57,1.43,1.16,2.14,1.75.32.27.64.53.96.8,1.03.87,2.05,1.76,3.07,2.68.13.11.25.24.38.35.89.81,1.77,1.63,2.65,2.46.34.32.68.66,1.01.99.65.64,1.31,1.28,1.95,1.93.37.38.75.76,1.12,1.14.59.61,1.17,1.22,1.75,1.83.37.39.74.79,1.11,1.19.58.63,1.16,1.27,1.73,1.92.34.38.69.76,1.02,1.15.63.73,1.26,1.46,1.88,2.2.26.31.53.62.79.93.9,1.08,1.79,2.18,2.67,3.29.14.18.28.36.41.54.84,1.07,1.66,2.15,2.47,3.24.36.48.71.96,1.06,1.44.34.47.69.94,1.03,1.42.4.55.79,1.11,1.18,1.67.33.48.67.96,1,1.44.27.4.53.79.8,1.19.82,1.23,1.64,2.47,2.43,3.72.16.25.32.49.48.74.91,1.44,1.79,2.9,2.66,4.37.31.52.61,1.05.92,1.57.31.53.62,1.07.92,1.6.33.58.65,1.17.98,1.76.3.54.59,1.08.88,1.62.25.46.49.92.73,1.38.47.89.93,1.78,1.38,2.68.25.49.5.99.74,1.48.35.71.69,1.42,1.03,2.14.25.53.51,1.07.76,1.6.29.63.58,1.27.86,1.9.26.57.51,1.14.76,1.71.26.58.5,1.17.75,1.76.25.59.5,1.19.75,1.78.25.6.49,1.21.73,1.81.23.59.47,1.17.69,1.76.24.63.47,1.25.71,1.88.21.58.43,1.16.64,1.74.25.68.48,1.37.72,2.05.19.55.38,1.1.56,1.64.24.74.48,1.47.71,2.21.16.51.33,1.02.48,1.53.26.85.5,1.7.74,2.55.13.47.28.94.41,1.4l21.11,12.19c.8.46,1.59.94,2.38,1.44.05.03.1.06.15.09.77.49,1.53,1,2.29,1.53.26.18.52.37.78.55.51.36,1.02.72,1.52,1.1.31.23.62.47.92.7.45.35.91.7,1.36,1.06.33.27.66.54.99.81.43.36.86.72,1.28,1.08.34.29.67.58,1.01.88.42.37.83.75,1.24,1.13.33.31.67.61,1,.93.42.4.83.8,1.25,1.21.31.3.61.6.92.91.43.43.85.87,1.28,1.32.28.29.56.58.84.88.49.52.97,1.06,1.45,1.59.19.22.39.43.59.65.68.77,1.34,1.55,2,2.34.1.12.2.25.31.38.56.67,1.11,1.35,1.65,2.05.7.89,1.38,1.78,2.05,2.7,0,.01.02.02.03.04.95,1.29,1.87,2.61,2.77,3.95.21.31.43.63.64.94.33.49.64.99.96,1.49.28.44.57.89.85,1.34.31.5.62,1.01.92,1.52.25.42.5.84.75,1.26.73,1.24,1.43,2.5,2.11,3.76.25.46.49.93.73,1.39.25.49.51.98.76,1.47.35.69.68,1.39,1.02,2.08.11.23.22.45.33.67.42.9.83,1.81,1.23,2.71.11.24.21.48.31.72.29.68.58,1.35.85,2.03.13.31.25.62.37.93.26.65.51,1.31.76,1.96.11.28.21.56.32.84.32.86.62,1.73.91,2.59.02.07.05.15.08.22.31.94.61,1.88.9,2.82.09.3.18.61.27.91.19.65.37,1.29.55,1.94.1.36.19.72.28,1.08.16.6.31,1.21.45,1.81.08.36.17.71.25,1.07.14.62.27,1.24.4,1.86.07.33.14.66.2.98.16.81.3,1.63.43,2.44.02.12.04.23.06.35.15.93.27,1.85.39,2.77.03.26.06.52.09.78.07.66.14,1.32.2,1.97.03.32.05.63.08.94.05.62.08,1.24.11,1.86.01.3.03.6.04.89.03.88.05,1.75.05,2.62v3.84c-.01.91-.04,1.8-.08,2.68-.01.25-.03.49-.05.74-.03.6-.08,1.2-.13,1.79-.03.34-.07.67-.1,1.01-.05.5-.11.99-.18,1.48-.05.36-.1.71-.16,1.07-.07.45-.15.89-.23,1.33-.07.39-.15.78-.23,1.17-.08.39-.17.78-.27,1.17-.11.45-.23.9-.35,1.34-.1.34-.19.69-.3,1.02-.16.53-.34,1.04-.51,1.55-.1.28-.19.55-.29.82-.32.85-.67,1.68-1.05,2.48-.29.62-.6,1.22-.92,1.81,0,0,0,0,0,0-.33.59-.67,1.16-1.03,1.72-.07.11-.15.22-.22.33-.27.41-.55.81-.84,1.2-.12.16-.23.31-.35.46-.27.35-.55.69-.84,1.03-.11.13-.22.26-.33.38-.39.44-.8.87-1.22,1.27-.06.06-.12.11-.18.17-.36.35-.74.68-1.12,1-.14.12-.28.23-.42.34-.33.26-.66.52-1,.76-.14.1-.28.2-.42.3-.47.32-.95.64-1.45.92l176.2-102.4c.5-.29.98-.6,1.45-.92.14-.1.28-.2.42-.3.34-.24.67-.5,1-.76.14-.11.28-.23.42-.34.38-.32.76-.65,1.12-1,.06-.06.12-.11.18-.17.42-.41.82-.83,1.22-1.27.11-.12.22-.26.33-.38.29-.33.57-.68.84-1.03.12-.15.24-.31.35-.46.29-.39.57-.79.84-1.2.07-.11.15-.22.22-.33.02-.03.04-.06.07-.1.33-.52.65-1.05.95-1.61,0,0,0-.02.01-.02.31-.55.6-1.13.88-1.71.01-.03.02-.06.04-.08.38-.8.72-1.63,1.05-2.48.03-.07.06-.14.09-.21.07-.2.13-.41.2-.61.18-.51.35-1.02.51-1.55.04-.14.1-.27.14-.41.06-.2.1-.41.16-.61.12-.44.24-.88.35-1.34.04-.19.1-.36.14-.55.05-.2.08-.42.12-.62.08-.39.16-.77.23-1.17.04-.2.08-.4.12-.6.04-.24.07-.49.11-.73.06-.35.11-.71.16-1.06.02-.18.06-.36.08-.54.04-.31.06-.62.1-.94.04-.34.07-.67.1-1.01.01-.14.03-.27.04-.41.04-.45.06-.92.09-1.39.01-.25.03-.49.05-.74,0-.06,0-.12.01-.18.03-.77.05-1.56.06-2.36,0-.05,0-.09,0-.14v-3.84c.01-.73,0-1.47-.02-2.2Z"/>
          <path class="st1" d="M410.22,421.57c37.8,21.82,69.98,67.67,82.57,113.31,6.24,1.66,12.8,4.41,19.57,8.32,31.87,18.4,59.01,57.07,69.6,95.57l21.11,12.19c26.98,15.58,48.78,53.34,48.7,84.35v3.84c-.1,31-22.04,43.52-49.03,27.94l-293.66-169.55c-26.98-15.58-48.78-53.35-48.7-84.35v-3.84c.02-1.58.09-3.11.21-4.6-.11-1.78-.18-3.54-.17-5.29.11-38.59,27.42-54.15,61-34.76,3.73-50.62,42.1-70.08,88.8-43.11Z"/>
        </g>
        <path class="st2" d="M737.62,405.91c.03-10.92-7.66-24.23-17.16-29.72l-176.26-101.76c-9.51-5.49-17.24-1.08-17.27,9.84l-.76,268.39c.06.05.12.09.18.14.72.57,1.43,1.16,2.14,1.75.32.27.64.53.96.8,1.03.87,2.05,1.76,3.07,2.68.13.11.25.24.38.35.89.81,1.77,1.63,2.65,2.46.34.32.68.66,1.01.99.65.64,1.31,1.28,1.95,1.93.37.38.75.76,1.12,1.14.59.61,1.17,1.22,1.75,1.83.37.39.74.79,1.11,1.19.58.63,1.16,1.27,1.73,1.92.34.38.69.76,1.02,1.15.63.73,1.26,1.46,1.88,2.2.26.31.53.62.79.93.9,1.08,1.79,2.18,2.67,3.29.14.18.28.36.41.54.84,1.07,1.66,2.15,2.47,3.24.36.48.71.96,1.06,1.44.34.47.69.94,1.03,1.42.4.55.79,1.11,1.18,1.67.33.48.67.96,1,1.44.27.4.53.79.8,1.19.82,1.23,1.64,2.47,2.43,3.72.16.25.32.49.48.74.91,1.44,1.79,2.9,2.66,4.37.31.52.61,1.05.92,1.57.31.53.62,1.07.92,1.6.33.58.65,1.17.98,1.76.3.54.59,1.08.88,1.62.25.46.49.92.73,1.38.47.89.93,1.78,1.38,2.68.25.49.5.99.74,1.48.35.71.69,1.42,1.03,2.14.25.53.51,1.07.76,1.6.29.63.58,1.27.86,1.9.26.57.51,1.14.76,1.71.26.58.5,1.17.75,1.76.25.59.5,1.19.75,1.78.25.6.49,1.21.73,1.81.23.59.47,1.17.69,1.76.24.63.47,1.25.71,1.88.21.58.43,1.16.64,1.74.25.68.48,1.37.72,2.05.19.55.38,1.1.56,1.64.24.74.48,1.47.71,2.21.16.51.33,1.02.48,1.53.26.85.5,1.7.74,2.55.13.47.28.94.41,1.4l21.11,12.19c.8.46,1.59.94,2.38,1.44.05.03.1.06.15.09.77.49,1.53,1,2.29,1.53.26.18.52.37.78.55.51.36,1.02.72,1.52,1.1.31.23.62.47.92.7.46.35.91.7,1.36,1.06.33.27.66.54.99.81.43.36.86.72,1.28,1.08.34.29.67.58,1.01.88.42.37.83.75,1.24,1.13.33.31.67.61,1,.93.42.4.83.8,1.25,1.21.31.3.61.6.92.91.43.43.85.87,1.28,1.32.28.29.56.58.84.88.49.52.97,1.06,1.45,1.59.19.22.39.43.59.65.68.77,1.34,1.55,2,2.34.1.12.2.25.31.38.56.67,1.11,1.35,1.65,2.05.7.89,1.38,1.78,2.05,2.7,0,.01.02.02.03.04.95,1.29,1.87,2.61,2.77,3.95.21.31.43.63.64.94.33.49.64.99.96,1.49.28.44.57.89.85,1.34.31.5.62,1.01.92,1.52.25.42.5.84.75,1.26.73,1.24,1.43,2.5,2.11,3.76.25.46.49.93.73,1.39.25.49.51.98.76,1.47.35.69.68,1.39,1.02,2.08.11.23.22.45.33.67.42.9.83,1.81,1.23,2.71.11.24.21.48.31.72.29.68.58,1.35.85,2.03.13.31.25.62.37.93.26.65.51,1.31.76,1.96.11.28.21.56.32.84.32.86.62,1.73.91,2.59.02.07.05.15.08.22.31.94.61,1.88.9,2.82.09.3.18.61.27.91.19.65.37,1.29.55,1.94.1.36.19.72.28,1.08.16.6.31,1.21.45,1.81.08.36.17.71.25,1.07.14.62.27,1.24.4,1.86.07.33.14.66.2.98.13.67.24,1.33.35,2l34.66,20.01,51.6-29.99.69-306.78Z"/>
        <g>
          <path class="st3" d="M703.46,419.87l-143.11-81.19c-1.96-1.13-3.55-.22-3.56,2.03s1.58,5,3.54,6.13l143.11,81.19c1.96,1.13,3.55.22,3.56-2.03,0-2.25-1.58-5-3.54-6.13Z"/>
          <path class="st3" d="M703.46,469.9l-143.11-81.19c-1.96-1.13-3.55-.22-3.56,2.03s1.58,5,3.54,6.13l143.11,81.19c1.96,1.13,3.55.22,3.56-2.03,0-2.25-1.58-5-3.54-6.13Z"/>
          <path class="st3" d="M703.46,519.93l-143.11-81.19c-1.96-1.13-3.55-.22-3.56,2.03s1.58,5,3.54,6.13l143.11,81.19c1.96,1.13,3.55.22,3.56-2.03,0-2.25-1.58-5-3.54-6.13Z"/>
          <path class="st3" d="M703.46,569.96l-143.11-81.19c-1.96-1.13-3.55-.22-3.56,2.03s1.58,5,3.54,6.13l143.11,81.19c1.96,1.13,3.55.22,3.56-2.03,0-2.25-1.58-5-3.54-6.13Z"/>
          <path class="st3" d="M703.46,619.99l-143.11-81.19c-1.96-1.13-3.55-.22-3.56,2.03s1.58,5,3.54,6.13l143.11,81.19c1.96,1.13,3.55.22,3.56-2.03,0-2.25-1.58-5-3.54-6.13Z"/>
        </g>
        <path class="st7" d="M691.55,421.95c.03-10.92-7.66-24.23-17.16-29.72l-176.26-101.76c-9.51-5.49-17.24-1.08-17.27,9.84l-.46,202.38c.26.53.52,1.07.78,1.6.3.63.6,1.26.9,1.9.35.75.68,1.5,1.02,2.25.3.68.61,1.35.91,2.03.31.7.6,1.4.9,2.1.3.7.6,1.4.89,2.11.3.72.58,1.44.87,2.16.28.7.56,1.39.82,2.09.29.74.56,1.48.84,2.22.25.69.51,1.37.76,2.06.29.82.57,1.64.86,2.45.22.65.45,1.29.66,1.94.29.88.57,1.77.85,2.65.19.6.38,1.19.56,1.79.32,1.06.63,2.12.93,3.17.14.49.29.97.42,1.46.74.2,1.48.41,2.22.64.91.28,1.83.58,2.75.9.25.09.51.19.76.28.67.24,1.33.49,2.01.75.33.13.65.26.98.4.61.25,1.22.51,1.83.78.33.14.66.29.99.44.66.3,1.33.62,2,.94.26.13.53.25.79.38.93.46,1.86.94,2.8,1.45.81.44,1.63.89,2.44,1.36.58.34,1.16.69,1.74,1.04.57.34,1.14.69,1.7,1.04.45.28.89.57,1.33.86.59.38,1.17.77,1.76,1.16.44.3.87.6,1.31.9.6.42,1.2.84,1.79,1.27.43.31.85.62,1.27.94.63.47,1.26.95,1.89,1.44.4.31.8.62,1.2.94.72.57,1.43,1.16,2.14,1.75.32.27.64.53.96.8,1.03.87,2.05,1.76,3.07,2.68.13.11.25.24.38.35.89.81,1.77,1.63,2.65,2.46.34.32.68.66,1.01.99.65.64,1.31,1.28,1.95,1.93.37.38.75.76,1.12,1.14.59.61,1.17,1.22,1.75,1.83.37.39.74.79,1.11,1.19.58.63,1.16,1.27,1.73,1.92.34.38.69.76,1.02,1.15.63.73,1.26,1.46,1.88,2.2.26.31.53.62.79.93.9,1.08,1.79,2.18,2.67,3.29.14.18.28.36.41.54.84,1.07,1.66,2.15,2.47,3.24.36.48.71.96,1.06,1.44.34.47.69.94,1.03,1.42.4.55.79,1.11,1.18,1.67.33.48.67.96,1,1.44.27.39.53.79.8,1.19.82,1.23,1.64,2.47,2.43,3.72.16.25.32.49.48.74.91,1.44,1.79,2.9,2.66,4.37.31.52.61,1.05.92,1.57.31.53.62,1.07.92,1.6.33.58.65,1.17.98,1.76.3.54.59,1.08.88,1.62.25.46.49.92.73,1.38.47.89.93,1.78,1.38,2.68.25.49.5.99.74,1.48.35.71.69,1.42,1.03,2.14.25.53.51,1.07.76,1.6.29.63.58,1.27.86,1.9.26.57.51,1.14.76,1.71.26.58.5,1.17.75,1.76.25.59.5,1.19.75,1.78.25.6.49,1.21.73,1.81.23.59.47,1.17.69,1.76.24.63.47,1.25.71,1.88.21.58.43,1.16.64,1.74.25.68.48,1.37.72,2.05.19.55.38,1.1.56,1.64.24.74.48,1.47.71,2.21.16.51.33,1.02.48,1.53.26.85.5,1.7.74,2.55.13.47.28.94.41,1.4l21.11,12.19c.8.46,1.59.94,2.38,1.44.05.03.1.06.15.09.77.49,1.53,1,2.29,1.53.26.18.52.37.78.55.51.36,1.02.72,1.52,1.1.31.23.62.47.92.7.46.35.91.7,1.36,1.06.33.27.66.54.99.81.43.36.86.72,1.28,1.08.34.29.67.58,1.01.88.42.37.83.75,1.24,1.13.33.31.67.61,1,.93.42.4.83.8,1.25,1.21.31.3.61.6.92.91.43.43.85.87,1.28,1.32.28.29.56.58.84.88.49.52.97,1.06,1.45,1.59.19.22.39.43.59.65.68.77,1.34,1.55,2,2.34.1.12.2.25.31.38.56.67,1.11,1.35,1.65,2.05.7.89,1.38,1.78,2.05,2.7,0,.01.02.02.03.04.95,1.29,1.87,2.61,2.77,3.95.21.31.43.63.64.94.33.49.65.99.96,1.49.28.44.57.89.85,1.34.31.5.62,1.01.92,1.52.25.42.5.84.75,1.26.73,1.24,1.43,2.5,2.11,3.76.25.46.49.93.73,1.39.25.49.51.98.76,1.47.35.69.68,1.39,1.02,2.08.11.23.22.45.33.67.42.9.83,1.81,1.23,2.71.11.24.21.48.31.72.29.68.58,1.35.85,2.03.13.31.25.62.37.93.26.65.51,1.31.76,1.96.11.28.21.56.32.84.32.86.62,1.73.91,2.59.02.07.05.15.08.22.31.94.61,1.88.9,2.82.09.3.18.61.27.91.19.65.37,1.29.55,1.94.1.36.19.72.28,1.08.16.6.31,1.21.45,1.81.08.36.17.71.25,1.07.14.62.27,1.24.4,1.86.07.33.14.66.2.98.16.81.3,1.63.43,2.44.02.12.04.23.06.35.15.93.27,1.85.39,2.77.03.26.06.52.09.78.07.66.14,1.32.2,1.97.03.32.05.63.07.94.05.62.08,1.24.11,1.86.01.3.03.6.04.89.03.88.05,1.75.05,2.62v3.84c-.01.91-.04,1.8-.08,2.68-.01.25-.03.49-.05.74-.03.6-.08,1.2-.13,1.79-.03.34-.07.67-.1,1.01-.05.5-.11.99-.18,1.48-.05.36-.1.71-.16,1.07-.07.45-.15.89-.23,1.33-.07.39-.15.78-.23,1.17-.08.39-.17.78-.27,1.17-.11.45-.23.9-.35,1.34-.1.34-.19.69-.3,1.02-.16.53-.34,1.04-.51,1.55-.1.28-.19.55-.29.82-.32.85-.67,1.68-1.05,2.48-.29.62-.6,1.22-.92,1.81,0,0,0,0,0,0-.16.28-.33.55-.49.82l3.34,1.93,40.49-23.53.72-319.64Z"/>
        <g>
          <path class="st8" d="M634.73,682.69c.28.44.57.89.85,1.34.31.5.62,1.01.92,1.52.25.42.5.84.75,1.26.73,1.24,1.43,2.5,2.11,3.76.25.46.49.93.73,1.39.25.49.51.98.76,1.47.35.69.68,1.39,1.02,2.08.11.23.22.45.33.67.42.9.83,1.81,1.23,2.71.11.24.21.48.31.72.29.68.58,1.35.85,2.03.13.31.25.62.37.93.26.65.51,1.31.76,1.96.11.28.21.56.32.84.32.86.62,1.73.91,2.59.02.07.05.15.08.22.31.94.61,1.88.9,2.82.09.3.18.61.27.91.19.65.37,1.29.55,1.94.1.36.19.72.28,1.08.16.6.31,1.21.45,1.81.08.36.17.71.25,1.07.14.62.27,1.24.4,1.86.07.33.14.66.2.98.16.81.3,1.63.43,2.44.02.12.04.23.06.35.12.78.23,1.57.33,2.35l.63-276.86c.03-10.92-7.66-24.23-17.16-29.72l-176.26-101.76c-9.51-5.49-17.24-1.08-17.27,9.84l-.27,118.21c.15.15.31.3.46.45.44.45.88.9,1.32,1.35.7.72,1.39,1.45,2.08,2.18.44.47.87.93,1.31,1.4.69.75,1.37,1.51,2.05,2.28.4.45.81.9,1.21,1.36.75.86,1.5,1.74,2.24,2.62.31.36.62.72.92,1.09,1.07,1.29,2.13,2.6,3.18,3.92.18.23.36.47.54.7.98,1.26,1.95,2.53,2.91,3.81.41.56.83,1.11,1.23,1.67.42.57.83,1.14,1.24,1.71.47.65.93,1.31,1.39,1.97.4.58.8,1.15,1.2,1.73.33.49.66.98.99,1.47,1.01,1.51,2,3.03,2.98,4.56.15.24.31.48.46.72,1.09,1.73,2.14,3.47,3.18,5.23.36.61.71,1.22,1.06,1.83.36.62.72,1.24,1.07,1.87.39.7.78,1.41,1.17,2.11.34.63.69,1.25,1.02,1.88.3.57.6,1.14.9,1.7.54,1.03,1.08,2.07,1.6,3.11.3.59.59,1.17.88,1.76.41.84.82,1.68,1.22,2.52.3.63.6,1.26.9,1.9.35.75.69,1.5,1.02,2.25.3.68.61,1.35.91,2.03.31.7.6,1.4.9,2.1.3.7.6,1.4.89,2.11.3.72.58,1.44.87,2.16.28.7.56,1.39.82,2.09.28.74.56,1.48.84,2.22.25.68.51,1.37.76,2.06.29.82.57,1.64.86,2.45.22.65.45,1.29.66,1.94.29.88.57,1.77.85,2.65.19.6.38,1.19.56,1.79.32,1.06.63,2.12.93,3.17.14.49.29.97.42,1.46.74.2,1.48.41,2.22.64.91.28,1.83.58,2.75.9.25.09.51.19.76.28.67.24,1.33.49,2.01.75.33.13.65.26.98.4.61.25,1.22.51,1.83.78.33.14.66.29.99.44.66.3,1.33.62,2,.94.26.13.53.25.79.38.93.46,1.86.94,2.8,1.45.81.44,1.63.89,2.44,1.36.58.34,1.16.69,1.74,1.04.57.34,1.14.69,1.7,1.04.45.28.89.57,1.33.86.59.38,1.17.77,1.76,1.16.44.3.87.6,1.31.9.6.42,1.2.84,1.79,1.27.43.31.85.62,1.27.94.63.47,1.26.95,1.89,1.44.4.31.8.62,1.2.94.72.57,1.43,1.16,2.14,1.75.32.27.64.53.96.8,1.03.87,2.05,1.76,3.07,2.68.13.11.25.24.38.35.89.81,1.77,1.63,2.65,2.46.34.32.68.66,1.01.99.65.64,1.31,1.28,1.95,1.93.37.38.75.76,1.12,1.14.59.61,1.17,1.22,1.75,1.83.37.39.74.79,1.11,1.19.58.63,1.16,1.27,1.73,1.92.34.38.69.76,1.02,1.15.63.73,1.26,1.46,1.88,2.2.26.31.53.62.79.93.9,1.08,1.79,2.18,2.67,3.29.14.18.28.36.41.54.84,1.07,1.66,2.15,2.47,3.24.36.48.71.96,1.06,1.44.34.47.69.94,1.03,1.42.4.55.79,1.11,1.18,1.67.33.48.67.96,1,1.44.27.4.53.79.8,1.19.82,1.23,1.64,2.47,2.43,3.72.16.25.32.49.48.74.91,1.44,1.79,2.9,2.66,4.37.31.52.61,1.05.92,1.57.31.53.62,1.07.92,1.6.33.58.65,1.17.98,1.76.3.54.59,1.08.88,1.62.25.46.49.92.73,1.38.47.89.93,1.78,1.38,2.68.25.49.5.99.74,1.48.35.71.69,1.42,1.03,2.14.25.53.51,1.07.76,1.6.29.63.58,1.27.86,1.9.26.57.51,1.14.76,1.71.26.58.5,1.17.75,1.76.25.59.5,1.19.75,1.78.25.6.49,1.21.73,1.81.23.59.47,1.17.69,1.76.24.63.47,1.25.71,1.88.21.58.43,1.16.64,1.74.25.68.48,1.37.72,2.05.19.55.38,1.1.56,1.64.24.74.48,1.47.71,2.21.16.51.33,1.02.48,1.53.26.85.5,1.7.74,2.55.13.47.28.94.41,1.4l21.11,12.19c.8.46,1.59.94,2.38,1.44.05.03.1.06.15.09.77.49,1.53,1,2.29,1.53.26.18.52.37.78.55.51.36,1.02.72,1.52,1.1.31.23.62.47.92.7.45.35.91.7,1.36,1.06.33.27.66.54.99.81.43.36.86.72,1.28,1.08.34.29.67.58,1.01.88.42.37.83.75,1.24,1.13.33.31.67.61,1,.93.42.4.83.8,1.25,1.21.31.3.61.6.92.91.43.43.85.87,1.28,1.32.28.29.56.58.84.88.49.52.97,1.06,1.45,1.59.19.22.39.43.59.65.68.77,1.34,1.55,2,2.34.1.12.2.25.31.38.56.67,1.11,1.35,1.65,2.05.7.89,1.38,1.78,2.05,2.7,0,.01.02.02.03.04.95,1.29,1.87,2.61,2.77,3.95.21.31.43.63.64.94.33.49.64.99.96,1.49Z"/>
          <path class="st0" d="M651.09,747.78s-.01.08-.02.12c-.07.45-.15.89-.23,1.33-.07.39-.15.78-.23,1.17-.08.39-.17.78-.27,1.17-.11.45-.23.9-.35,1.34-.1.34-.19.69-.3,1.02-.16.53-.34,1.04-.51,1.55-.1.28-.19.55-.29.82-.32.85-.67,1.68-1.05,2.48-.29.62-.6,1.22-.92,1.81,0,0,0,0,0,0-.33.59-.67,1.16-1.03,1.72-.07.11-.15.22-.22.33-.27.41-.55.81-.84,1.2-.12.16-.23.31-.35.46-.27.35-.55.69-.84,1.03-.11.13-.22.26-.33.38-.39.44-.8.87-1.22,1.27-.06.06-.12.11-.18.17-.36.35-.74.68-1.12,1-.14.12-.28.23-.42.34-.33.26-.66.52-1,.76-.14.1-.28.2-.42.3-.47.32-.95.64-1.45.92l13.56-7.88.03-14.81Z"/>
        </g>
        <g>
          <path class="st2" d="M617.59,462.89l-143.11-81.19c-1.96-1.13-3.55-.22-3.56,2.03,0,2.25,1.58,5,3.54,6.13l143.11,81.19c1.96,1.13,3.56.22,3.56-2.03,0-2.25-1.58-5-3.54-6.13Z"/>
          <path class="st2" d="M617.59,512.92l-143.11-81.19c-1.96-1.13-3.55-.22-3.56,2.03,0,2.25,1.58,5,3.54,6.13l143.11,81.19c1.96,1.13,3.56.22,3.56-2.03,0-2.25-1.58-5-3.54-6.13Z"/>
          <path class="st2" d="M617.59,562.95l-143.11-81.19c-1.96-1.13-3.55-.22-3.56,2.03,0,2.25,1.58,5,3.54,6.13l143.11,81.19c1.96,1.13,3.56.22,3.56-2.03,0-2.25-1.58-5-3.54-6.13Z"/>
          <path class="st2" d="M617.59,612.98l-143.11-81.19c-1.96-1.13-3.55-.22-3.56,2.03,0,2.25,1.58,5,3.54,6.13l143.11,81.19c1.96,1.13,3.56.22,3.56-2.03,0-2.25-1.58-5-3.54-6.13Z"/>
          <path class="st2" d="M617.59,663.01l-143.11-81.19c-1.96-1.13-3.55-.22-3.56,2.03,0,2.25,1.58,5,3.54,6.13l143.11,81.19c1.96,1.13,3.56.22,3.56-2.03,0-2.25-1.58-5-3.54-6.13Z"/>
        </g>
        <g>
          <g>
            <path class="st7" d="M325.8,459.19c-.33-.18-.66-.35-.99-.51-.26-.13-.51-.27-.77-.4-.41-.2-.82-.38-1.22-.58-.29-.14-.59-.28-.88-.41-.12-.05-.24-.12-.36-.17-.81-.36-1.62-.71-2.43-1.03,0,0,0,0,0,0-.82-.33-1.64-.64-2.45-.92-.11-.04-.21-.07-.31-.1-.29-.1-.58-.19-.88-.29-.41-.14-.83-.28-1.24-.41-.21-.06-.41-.11-.61-.17-.36-.1-.72-.2-1.07-.3-.28-.07-.55-.16-.83-.23-.29-.07-.57-.12-.86-.19-.36-.08-.71-.16-1.07-.24-.19-.04-.38-.09-.57-.13-.34-.07-.66-.11-1-.16-.41-.07-.82-.14-1.23-.2-.14-.02-.29-.05-.43-.07-.34-.05-.67-.07-1.01-.1-.44-.05-.88-.1-1.31-.13-.13-.01-.26-.03-.39-.04-.3-.02-.58-.02-.88-.03-.52-.02-1.04-.05-1.55-.05-.14,0-.29-.01-.43-.01-.57,0-1.13.02-1.68.05-.07,0-.14.01-.21.01-.42.02-.84.05-1.26.09-.26.02-.52.06-.79.09-.2.02-.4.04-.59.07-.72.1-1.43.21-2.13.35-.02,0-.04.01-.06.02-.19.04-.38.09-.57.13-.58.13-1.16.26-1.72.42-.28.08-.55.17-.82.26-.36.11-.73.21-1.08.34-.09.03-.17.07-.26.11-.55.2-1.08.43-1.61.66-.26.11-.52.21-.78.33-.78.36-1.54.75-2.27,1.18l-7.05,4.1c.74-.43,1.5-.82,2.27-1.18.25-.12.52-.22.78-.33.53-.23,1.06-.46,1.61-.66.44-.16.89-.31,1.34-.45.27-.09.54-.18.82-.26.56-.16,1.14-.29,1.72-.42.19-.04.37-.1.57-.13.72-.15,1.45-.26,2.19-.36.2-.03.4-.05.59-.07.67-.08,1.35-.14,2.04-.18.07,0,.14-.01.21-.01.7-.03,1.4-.04,2.11-.03.51,0,1.03.03,1.55.05.42.02.84.03,1.26.07.43.03.87.09,1.31.13.48.05.96.1,1.44.17.41.06.82.13,1.23.2.52.09,1.04.18,1.56.29.35.07.71.16,1.07.24.56.13,1.12.27,1.68.42.36.1.71.19,1.07.3.61.18,1.23.37,1.86.58.29.1.58.18.88.29,1.83.63,3.68,1.37,5.56,2.23.29.13.59.28.88.41.66.31,1.32.63,1.99.97.33.17.66.34.99.51.88.47,1.77.94,2.66,1.46l7.05-4.1c-.65-.37-1.29-.73-1.93-1.08-.24-.13-.49-.25-.73-.38Z"/>
            <path class="st7" d="M658.78,729.06c0-.14-.01-.28-.02-.42-.01-.3-.03-.6-.04-.9-.02-.35-.03-.7-.05-1.05-.02-.27-.04-.54-.06-.81-.02-.32-.05-.63-.08-.95-.02-.21-.03-.41-.05-.62-.04-.45-.1-.9-.15-1.35-.03-.26-.05-.52-.09-.78-.01-.09-.02-.17-.03-.26-.1-.82-.22-1.63-.35-2.45,0-.02,0-.04,0-.05-.02-.12-.04-.24-.06-.35-.11-.69-.23-1.37-.36-2.06-.02-.12-.05-.25-.07-.37-.06-.33-.13-.65-.2-.98-.08-.4-.16-.8-.24-1.2-.05-.22-.11-.44-.16-.67-.08-.36-.16-.71-.25-1.07-.07-.28-.12-.55-.19-.83-.08-.33-.17-.66-.26-.99-.09-.36-.19-.72-.28-1.08-.05-.18-.09-.35-.14-.53-.13-.47-.27-.94-.41-1.41-.09-.3-.17-.61-.27-.91-.03-.09-.05-.17-.08-.26-.26-.84-.53-1.68-.81-2.53,0-.01,0-.02-.01-.03-.02-.07-.05-.14-.08-.22-.25-.75-.51-1.5-.78-2.24-.04-.12-.09-.23-.13-.35-.1-.28-.21-.56-.31-.84-.15-.4-.3-.8-.45-1.2-.1-.25-.21-.51-.31-.76-.12-.31-.25-.62-.37-.93-.09-.23-.18-.45-.27-.68-.19-.45-.39-.9-.58-1.36-.1-.24-.2-.48-.31-.72-.04-.09-.07-.17-.11-.26-.35-.79-.71-1.58-1.07-2.36-.02-.03-.03-.07-.05-.1-.1-.22-.21-.44-.32-.66-.29-.61-.58-1.21-.88-1.82-.05-.09-.1-.19-.15-.28-.25-.49-.5-.98-.76-1.47-.21-.39-.4-.79-.61-1.19-.04-.07-.08-.14-.12-.21-.68-1.27-1.38-2.52-2.11-3.76-.06-.11-.12-.21-.18-.32-.19-.32-.38-.62-.57-.94-.31-.51-.61-1.02-.92-1.52-.28-.45-.56-.89-.85-1.34-.32-.5-.64-.99-.96-1.48-.11-.16-.21-.33-.32-.49-.1-.15-.22-.3-.32-.46-.9-1.34-1.82-2.66-2.77-3.95,0,0,0,0,0,0,0,0-.01-.02-.02-.03-.67-.91-1.36-1.82-2.06-2.71-.03-.04-.06-.08-.09-.12-.51-.65-1.04-1.3-1.57-1.93-.1-.12-.2-.25-.3-.37,0,0-.01-.02-.02-.02-.62-.75-1.25-1.48-1.89-2.21-.03-.04-.07-.07-.1-.11-.19-.22-.39-.43-.58-.65-.41-.45-.81-.91-1.22-1.35-.08-.08-.16-.16-.23-.25-.28-.3-.56-.59-.84-.88-.31-.32-.61-.65-.93-.97-.12-.12-.24-.23-.35-.35-.3-.31-.61-.61-.92-.91-.26-.26-.52-.53-.79-.78-.15-.15-.31-.28-.46-.43-.33-.31-.66-.62-1-.93-.23-.21-.46-.43-.69-.64-.18-.16-.37-.32-.55-.48-.33-.3-.67-.59-1.01-.88-.2-.18-.41-.36-.61-.53-.22-.19-.45-.37-.67-.55-.33-.27-.66-.54-.99-.81-.17-.14-.34-.28-.51-.42-.28-.22-.57-.43-.85-.65-.31-.24-.61-.47-.92-.7-.13-.09-.25-.19-.38-.29-.38-.28-.77-.55-1.15-.82-.26-.18-.51-.37-.77-.55-.07-.05-.13-.1-.2-.14-.69-.47-1.38-.93-2.08-1.37,0,0-.01,0-.02-.01-.05-.03-.1-.06-.15-.09-.63-.4-1.26-.79-1.9-1.16-.16-.09-.32-.19-.48-.28l-21.11-12.19c-.03-.1-.06-.21-.09-.31-.1-.36-.21-.72-.32-1.08-.24-.85-.49-1.7-.75-2.56-.03-.1-.06-.2-.09-.3-.13-.41-.27-.82-.4-1.23-.23-.73-.46-1.47-.71-2.2-.05-.14-.09-.29-.14-.43-.14-.41-.28-.81-.42-1.22-.24-.68-.47-1.37-.71-2.05-.06-.18-.12-.36-.19-.54-.15-.4-.3-.8-.45-1.2-.23-.63-.46-1.25-.7-1.88-.07-.19-.14-.39-.22-.58-.15-.4-.32-.79-.48-1.18-.24-.6-.48-1.21-.73-1.81-.08-.2-.16-.4-.24-.6-.17-.4-.34-.79-.51-1.19-.25-.58-.5-1.17-.75-1.75-.09-.2-.17-.4-.25-.59-.17-.38-.34-.75-.51-1.12-.28-.63-.57-1.26-.86-1.89-.1-.21-.19-.42-.29-.63-.15-.33-.32-.65-.47-.98-.34-.71-.68-1.42-1.03-2.13-.12-.25-.24-.5-.36-.75-.12-.25-.25-.49-.38-.73-.45-.9-.91-1.79-1.38-2.68-.15-.29-.3-.58-.45-.87-.09-.17-.19-.34-.28-.51-.29-.54-.59-1.08-.88-1.62-.32-.59-.65-1.18-.98-1.76-.3-.54-.61-1.07-.92-1.6-.22-.39-.44-.78-.67-1.16-.08-.14-.17-.27-.25-.41-.87-1.47-1.75-2.93-2.66-4.37-.16-.25-.32-.5-.48-.75-.8-1.25-1.61-2.49-2.43-3.72-.14-.21-.27-.42-.41-.62-.13-.19-.26-.38-.39-.57-.33-.48-.66-.96-1-1.44-.39-.56-.78-1.12-1.18-1.68-.34-.47-.68-.94-1.02-1.41-.23-.31-.45-.63-.68-.94-.13-.17-.26-.34-.39-.51-.82-1.09-1.64-2.18-2.48-3.25-.11-.14-.21-.29-.32-.43-.03-.04-.06-.07-.08-.1-.88-1.11-1.77-2.21-2.67-3.29-.04-.05-.08-.1-.12-.15-.22-.26-.45-.52-.67-.78-.62-.74-1.25-1.48-1.88-2.2-.1-.11-.19-.23-.29-.34-.24-.27-.49-.54-.73-.81-.57-.64-1.15-1.29-1.73-1.92-.16-.17-.31-.34-.46-.51-.21-.23-.43-.45-.64-.67-.58-.62-1.17-1.23-1.75-1.84-.21-.22-.41-.44-.62-.65-.16-.16-.33-.32-.49-.48-.65-.65-1.3-1.3-1.96-1.93-.24-.24-.48-.48-.72-.72-.09-.09-.19-.18-.28-.26-.88-.84-1.77-1.66-2.66-2.47-.11-.1-.22-.2-.33-.3-.01-.01-.03-.02-.04-.04-1.01-.91-2.04-1.8-3.07-2.68-.07-.06-.14-.12-.21-.18-.25-.21-.5-.41-.75-.61-.71-.59-1.42-1.18-2.14-1.75-.15-.12-.29-.24-.44-.36-.25-.2-.51-.38-.76-.58-.63-.49-1.26-.97-1.89-1.44-.21-.16-.41-.32-.62-.48-.21-.16-.43-.3-.65-.46-.6-.43-1.19-.86-1.79-1.27-.26-.18-.52-.37-.78-.55-.18-.12-.36-.23-.53-.35-.58-.4-1.17-.78-1.76-1.16-.3-.2-.6-.4-.9-.59-.14-.09-.29-.17-.43-.26-.57-.36-1.13-.7-1.7-1.04-.34-.2-.67-.42-1.01-.62-.24-.14-.49-.28-.73-.42-.79-.46-1.58-.9-2.37-1.33-.02-.01-.05-.02-.07-.04-.94-.51-1.87-.99-2.8-1.45-.05-.03-.11-.06-.16-.08-.21-.1-.41-.19-.62-.29-.67-.33-1.34-.64-2.01-.95-.13-.06-.25-.12-.38-.18-.2-.09-.4-.17-.6-.26-.61-.27-1.22-.53-1.82-.77-.19-.08-.37-.16-.56-.24-.14-.06-.28-.1-.43-.16-.66-.26-1.31-.5-1.96-.74-.2-.07-.4-.16-.6-.23-.06-.02-.13-.04-.19-.06-.92-.32-1.83-.62-2.74-.9-.03,0-.05-.02-.08-.03-.73-.22-1.45-.43-2.17-.62-.02-.09-.05-.18-.07-.26-.11-.39-.23-.77-.34-1.16-.3-1.07-.61-2.14-.94-3.2-.03-.1-.06-.21-.09-.31-.15-.49-.32-.98-.47-1.47-.28-.89-.56-1.77-.85-2.66-.05-.16-.1-.31-.15-.47-.16-.49-.34-.97-.51-1.46-.28-.82-.56-1.64-.86-2.46-.07-.2-.13-.39-.2-.59-.18-.49-.37-.98-.55-1.47-.28-.74-.55-1.49-.84-2.23-.08-.21-.16-.43-.24-.64-.19-.48-.39-.96-.58-1.45-.29-.72-.57-1.44-.87-2.16-.09-.22-.18-.44-.27-.67-.2-.48-.41-.96-.62-1.45-.3-.7-.59-1.4-.9-2.09-.1-.22-.19-.44-.28-.66-.2-.46-.42-.91-.62-1.36-.34-.75-.68-1.5-1.02-2.25-.11-.24-.21-.47-.32-.71-.19-.4-.38-.79-.57-1.18-.4-.84-.81-1.69-1.22-2.53-.14-.28-.27-.57-.41-.85-.15-.3-.31-.6-.47-.9-.53-1.04-1.06-2.08-1.6-3.11-.18-.34-.35-.69-.53-1.03-.12-.23-.25-.45-.37-.67-.34-.63-.68-1.26-1.03-1.88-.39-.7-.77-1.41-1.17-2.11-.35-.62-.71-1.25-1.07-1.87-.25-.43-.49-.86-.73-1.28-.11-.18-.22-.36-.33-.54-1.04-1.76-2.09-3.5-3.18-5.23-.15-.24-.31-.48-.46-.72-.97-1.54-1.97-3.05-2.98-4.56-.16-.24-.31-.49-.47-.72-.17-.25-.34-.49-.51-.74-.4-.58-.8-1.16-1.2-1.74-.46-.66-.92-1.31-1.38-1.96-.41-.57-.82-1.15-1.24-1.72-.25-.35-.5-.7-.76-1.05-.16-.21-.32-.41-.48-.62-.96-1.28-1.93-2.56-2.91-3.81-.14-.18-.28-.37-.42-.55-.04-.05-.08-.1-.12-.15-1.05-1.32-2.1-2.63-3.18-3.93-.05-.06-.09-.11-.14-.17-.26-.31-.53-.61-.79-.92-.74-.88-1.48-1.76-2.24-2.62-.11-.13-.22-.26-.34-.39-.29-.33-.58-.64-.87-.96-.68-.77-1.37-1.53-2.06-2.28-.18-.19-.35-.4-.53-.59-.25-.27-.51-.53-.77-.8-.69-.74-1.39-1.47-2.09-2.19-.24-.25-.48-.51-.73-.77-.19-.2-.39-.39-.59-.58-.77-.77-1.54-1.54-2.32-2.29-.29-.28-.57-.57-.86-.85-.11-.11-.23-.21-.35-.32-1.03-.98-2.07-1.95-3.11-2.89-.14-.13-.28-.27-.42-.39-.02-.02-.04-.03-.06-.05-1.2-1.08-2.42-2.14-3.65-3.18-.08-.07-.16-.14-.24-.21-.29-.25-.59-.47-.88-.72-.85-.71-1.71-1.41-2.57-2.1-.17-.14-.34-.28-.51-.41-.3-.24-.6-.46-.91-.69-.75-.58-1.5-1.15-2.25-1.72-.25-.18-.49-.38-.73-.56-.26-.19-.52-.36-.77-.55-.71-.51-1.42-1.02-2.13-1.52-.31-.21-.61-.44-.92-.65-.21-.14-.42-.28-.63-.42-.7-.47-1.4-.93-2.1-1.38-.35-.23-.7-.47-1.06-.7-.17-.11-.34-.21-.51-.31-.67-.42-1.35-.83-2.03-1.24-.4-.24-.79-.49-1.19-.73-.29-.17-.58-.34-.87-.5-.87-.5-1.73-.98-2.59-1.45-.07-.04-.15-.08-.22-.12-.13-.07-.25-.13-.38-.2-.97-.52-1.93-1.02-2.89-1.5-.12-.06-.24-.13-.36-.18-.05-.03-.1-.05-.15-.07-1.05-.52-2.09-1-3.13-1.47-.1-.05-.2-.1-.3-.14-.13-.06-.26-.11-.39-.16-1.04-.46-2.08-.91-3.11-1.32-.01,0-.03-.01-.05-.02,0,0,0,0-.01,0-1.07-.43-2.14-.82-3.19-1.2-.12-.04-.25-.1-.37-.14-.09-.03-.18-.06-.28-.09-1.03-.36-2.06-.7-3.08-1.01-.06-.02-.13-.04-.19-.06-.11-.03-.22-.06-.33-.09-1.08-.32-2.15-.62-3.21-.89-.04,0-.07-.02-.11-.03-.01,0-.02,0-.03,0-1.12-.28-2.23-.52-3.33-.74-.11-.02-.22-.05-.32-.07-.11-.02-.21-.04-.32-.06-.29-.05-.57-.1-.86-.15-.38-.07-.76-.13-1.13-.19-.29-.05-.58-.09-.87-.13-.21-.03-.42-.07-.63-.09-.15-.02-.3-.03-.45-.05-.33-.04-.67-.08-1-.12-.34-.04-.68-.07-1.02-.11-.33-.03-.66-.06-.99-.08-.18-.01-.37-.03-.55-.05-.14,0-.28-.01-.42-.02-.37-.02-.74-.04-1.11-.06-.31-.01-.62-.03-.92-.03-.37,0-.73-.01-1.1-.02-.2,0-.4,0-.59,0-.1,0-.19,0-.28,0-.49,0-.99.02-1.48.04-.21,0-.43.01-.64.02-.7.03-1.39.08-2.07.14,0,0-.02,0-.02,0-.04,0-.07,0-.11.01-.74.07-1.46.16-2.19.25-.22.03-.43.06-.65.09-.62.09-1.23.2-1.84.31-.11.02-.23.04-.34.06-.03,0-.07.02-.1.02-.92.19-1.83.4-2.73.64-.16.04-.32.08-.48.13-.88.24-1.75.51-2.6.81-.06.02-.13.04-.19.06-.15.05-.29.11-.43.16-.38.14-.75.28-1.12.42-.23.09-.47.19-.7.28-.37.15-.74.31-1.1.47-.22.1-.44.2-.66.3-.39.18-.78.37-1.16.57-.18.09-.37.18-.55.28-.56.29-1.12.6-1.67.92l-7.05,4.1c.55-.32,1.11-.62,1.67-.92.18-.1.37-.18.55-.28.38-.19.77-.39,1.16-.57.22-.1.44-.2.67-.3.36-.16.73-.32,1.1-.47.23-.1.47-.19.7-.28.37-.15.75-.29,1.12-.42.21-.07.41-.15.62-.22.85-.29,1.72-.56,2.6-.81.16-.04.32-.09.48-.13.9-.24,1.81-.45,2.73-.64.15-.03.3-.05.44-.08.61-.12,1.22-.22,1.84-.31.21-.03.43-.06.65-.09.72-.1,1.45-.19,2.19-.25.04,0,.09-.01.13-.01.69-.06,1.38-.11,2.07-.14.21-.01.43-.01.64-.02.49-.02.98-.03,1.48-.04.29,0,.58,0,.88,0,.37,0,.73,0,1.1.02.31,0,.61.02.92.03.37.02.74.03,1.11.06.32.02.65.04.97.07.33.03.66.05.99.08.34.03.68.07,1.02.11.33.04.66.08,1,.12.36.05.72.1,1.08.15.29.04.58.08.87.13.38.06.75.12,1.13.19.29.05.57.1.86.15.21.04.43.09.64.13,1.1.22,2.21.46,3.33.74.05.01.09.03.14.04,1.06.27,2.14.57,3.22.89.17.05.35.1.52.15,1.02.31,2.05.65,3.08,1.01.22.07.43.15.65.23,1.06.38,2.12.77,3.19,1.2.02,0,.03.01.05.02,1.03.41,2.07.86,3.11,1.32.23.1.46.2.69.3,1.04.47,2.08.96,3.13,1.47.17.08.34.17.51.26.96.48,1.92.98,2.89,1.5.2.11.4.21.61.32.86.47,1.72.95,2.59,1.45.69.4,1.37.82,2.06,1.23.68.41,1.35.82,2.03,1.24.53.33,1.05.67,1.57,1.01.7.45,1.4.91,2.09,1.38.52.35,1.03.71,1.55,1.07.71.5,1.42,1,2.13,1.52.5.37,1.01.74,1.51,1.11.75.56,1.5,1.13,2.25,1.71.47.37.95.73,1.42,1.11.86.69,1.71,1.39,2.57,2.1.37.31.75.61,1.12.92,1.22,1.04,2.44,2.1,3.64,3.18.16.15.32.3.49.45,1.04.95,2.08,1.91,3.1,2.89.4.39.8.78,1.2,1.17.78.76,1.55,1.52,2.32,2.29.44.45.88.9,1.32,1.35.7.72,1.39,1.45,2.08,2.18.44.46.87.93,1.31,1.4.69.75,1.37,1.51,2.05,2.28.4.45.81.9,1.21,1.36.75.86,1.5,1.74,2.24,2.62.31.37.62.72.93,1.09,1.07,1.29,2.13,2.6,3.18,3.93.18.23.36.47.54.7.98,1.26,1.95,2.53,2.91,3.81.41.56.83,1.11,1.24,1.68.41.57.83,1.14,1.24,1.71.47.65.93,1.31,1.39,1.97.4.58.8,1.15,1.2,1.73.33.49.66.98.99,1.47,1.01,1.51,2,3.02,2.98,4.56.15.24.31.48.46.72,1.08,1.72,2.14,3.47,3.18,5.23.36.61.72,1.22,1.07,1.84.36.62.71,1.24,1.06,1.86.4.7.78,1.41,1.17,2.11.34.63.69,1.25,1.02,1.88.3.57.6,1.13.9,1.7.54,1.03,1.08,2.07,1.6,3.11.29.58.59,1.17.88,1.76.41.84.82,1.68,1.22,2.53.3.63.6,1.26.89,1.89.35.75.69,1.5,1.03,2.25.3.67.61,1.35.9,2.03.3.7.6,1.4.9,2.09.3.7.6,1.41.89,2.11.3.72.58,1.44.87,2.16.28.7.56,1.39.82,2.09.28.74.56,1.48.84,2.22.26.69.51,1.37.76,2.06.29.82.57,1.63.86,2.45.22.65.45,1.29.66,1.94.29.88.57,1.77.85,2.65.19.59.38,1.19.56,1.78.32,1.07.63,2.14.94,3.2.14.47.28.95.41,1.42h0s0,0,0,0c.75.2,1.5.41,2.25.64.91.28,1.82.58,2.74.9.26.09.53.19.79.29.65.24,1.31.48,1.96.74.33.13.66.26.99.4.61.25,1.21.51,1.82.77.33.14.65.29.98.43.67.3,1.33.62,2.01.94.26.13.52.25.78.38.93.46,1.86.94,2.8,1.45.81.44,1.62.89,2.44,1.36.58.34,1.16.69,1.74,1.04.57.34,1.14.69,1.7,1.04.44.28.89.57,1.33.86.59.38,1.17.77,1.76,1.16.44.3.87.6,1.31.9.6.42,1.2.84,1.79,1.27.43.31.85.62,1.28.94.63.47,1.26.95,1.89,1.44.4.31.8.62,1.2.94.72.57,1.43,1.16,2.14,1.75.32.27.64.53.96.8,1.03.87,2.05,1.76,3.07,2.68.12.11.24.23.37.34.89.81,1.78,1.63,2.66,2.47.34.32.67.65,1.01.98.66.64,1.31,1.28,1.96,1.93.37.38.74.76,1.11,1.14.59.61,1.17,1.22,1.75,1.84.37.39.74.79,1.11,1.19.58.63,1.16,1.27,1.73,1.92.34.38.68.76,1.02,1.15.63.73,1.26,1.46,1.88,2.2.26.31.53.62.79.93.9,1.08,1.79,2.18,2.67,3.29.14.17.27.35.41.53.84,1.07,1.66,2.15,2.48,3.25.36.48.71.96,1.06,1.44.34.47.69.94,1.03,1.42.4.56.79,1.12,1.18,1.68.33.48.67.96.99,1.44.27.4.54.8.8,1.2.82,1.23,1.63,2.47,2.43,3.71.16.25.32.5.48.75.91,1.44,1.79,2.9,2.66,4.37.31.52.61,1.05.92,1.58.31.53.62,1.06.92,1.6.33.59.65,1.18.98,1.76.3.54.59,1.08.88,1.62.25.46.48.92.73,1.38.47.89.93,1.78,1.38,2.68.25.49.5.99.74,1.49.35.71.69,1.42,1.03,2.14.25.53.51,1.07.76,1.6.29.63.58,1.27.86,1.9.26.57.51,1.14.76,1.71.26.58.5,1.17.75,1.76.25.59.5,1.19.75,1.78.25.6.49,1.21.73,1.81.23.59.47,1.18.7,1.77.24.62.47,1.25.71,1.88.21.58.43,1.16.64,1.74.25.68.48,1.37.72,2.05.19.55.38,1.1.56,1.65.24.73.48,1.47.71,2.2.16.51.33,1.02.48,1.53.26.86.51,1.71.75,2.57.13.46.27.92.4,1.38h0s21.11,12.19,21.11,12.19c.8.46,1.59.94,2.38,1.44.05.03.1.06.15.09.77.49,1.54,1,2.3,1.53.26.18.52.37.77.55.51.36,1.02.73,1.52,1.1.31.23.61.47.92.7.46.35.91.7,1.36,1.07.33.26.66.53.99.81.43.36.86.72,1.29,1.09.34.29.67.58,1,.88.42.37.83.75,1.25,1.13.33.31.67.61,1,.93.42.4.84.8,1.25,1.21.31.3.61.6.92.91.43.43.85.87,1.28,1.32.28.29.56.58.84.88.49.52.97,1.06,1.46,1.6.19.22.39.43.58.65.68.77,1.35,1.55,2,2.34.1.12.2.25.3.37.56.68,1.11,1.36,1.66,2.06.69.88,1.37,1.77,2.04,2.68.01.02.03.04.04.06.95,1.29,1.87,2.61,2.77,3.95.21.32.43.63.64.95.32.49.64.99.96,1.48.29.45.57.89.85,1.34.31.5.62,1.01.92,1.52.25.42.5.84.75,1.26.73,1.24,1.43,2.5,2.11,3.76.25.46.49.93.73,1.4.25.49.51.98.76,1.47.35.69.69,1.39,1.02,2.09.11.23.22.45.33.67.42.9.83,1.81,1.23,2.71.11.24.21.48.31.72.29.67.58,1.35.85,2.03.13.31.25.62.37.93.26.65.51,1.31.76,1.96.11.28.21.56.32.84.32.86.62,1.73.91,2.59.02.07.05.15.08.22.31.94.61,1.88.9,2.82.09.3.18.6.26.9.19.65.38,1.3.55,1.95.1.36.19.71.28,1.07.16.6.31,1.21.45,1.81.09.36.17.72.25,1.07.14.62.27,1.24.4,1.86.07.33.14.66.2.98.16.82.3,1.63.43,2.44.02.11.04.23.06.34.15.93.27,1.85.39,2.77.03.26.06.52.09.78.07.66.14,1.32.2,1.97.03.32.05.63.07.94.05.62.08,1.24.11,1.86.01.3.03.6.04.89.03.88.05,1.75.05,2.62v3.83c-.01.91-.04,1.81-.08,2.69-.01.25-.03.49-.05.73-.04.61-.08,1.21-.13,1.8-.03.34-.07.67-.1,1.01-.05.5-.11.99-.18,1.48-.05.36-.1.71-.16,1.07-.07.45-.15.89-.23,1.33-.07.39-.15.78-.23,1.17-.08.39-.17.78-.27,1.17-.11.45-.23.9-.35,1.34-.1.34-.19.69-.3,1.02-.16.53-.34,1.04-.52,1.55-.1.27-.19.55-.29.82-.32.85-.67,1.68-1.05,2.48-.29.61-.59,1.21-.91,1.79,0,0,0,0,0,.01-.33.59-.67,1.16-1.03,1.72-.07.11-.15.22-.22.33-.27.41-.55.81-.84,1.2-.12.16-.23.31-.35.46-.27.35-.55.69-.84,1.03-.11.13-.22.26-.33.38-.39.44-.8.87-1.22,1.27-.06.06-.12.11-.18.17-.36.35-.74.68-1.12,1-.14.12-.28.23-.42.34-.33.26-.66.51-1,.76-.14.1-.28.2-.42.3-.47.32-.95.64-1.45.92l7.05-4.1c.5-.29.98-.6,1.45-.92.14-.1.28-.2.42-.3.34-.24.67-.5,1-.76.14-.11.28-.23.42-.34.38-.32.76-.65,1.12-1,.06-.06.12-.11.18-.17.42-.41.82-.83,1.22-1.27.11-.12.22-.26.33-.38.29-.33.57-.68.84-1.03.12-.15.24-.31.35-.46.29-.39.57-.79.84-1.2.07-.11.15-.21.22-.33.02-.03.04-.06.07-.1.33-.52.65-1.06.96-1.62,0,0,0,0,0-.01.31-.55.6-1.12.88-1.71.01-.03.02-.06.04-.08.38-.8.72-1.63,1.05-2.48.03-.07.06-.14.09-.21.07-.2.13-.41.2-.61.18-.51.35-1.02.52-1.55.04-.14.1-.27.14-.41.06-.2.1-.41.16-.61.12-.44.24-.89.35-1.34.04-.18.1-.36.14-.54.05-.2.08-.42.12-.62.08-.39.16-.78.23-1.17.04-.2.08-.4.12-.6.04-.24.07-.49.11-.73.06-.35.11-.71.16-1.07.02-.18.06-.36.08-.54.04-.31.06-.63.1-.94.04-.34.07-.67.1-1.01.01-.14.03-.27.04-.41.04-.46.06-.93.09-1.39.01-.25.03-.49.05-.73,0-.06,0-.12.01-.18.03-.77.05-1.56.06-2.36,0-.05,0-.09,0-.14v-3.83c.01-.73,0-1.47-.02-2.2Z"/>
          </g>
          <path class="st2" d="M410.22,421.63c37.8,21.83,69.98,67.67,82.57,113.32,6.24,1.66,12.8,4.4,19.57,8.31,31.87,18.4,59.01,57.08,69.6,95.57l21.11,12.19c26.99,15.58,48.79,53.35,48.7,84.36v3.83c-.1,31.01-22.04,43.52-49.03,27.94l-293.66-169.54c-26.98-15.58-48.78-53.34-48.7-84.35v-3.83c.02-1.59.09-3.12.2-4.61-.1-1.78-.17-3.54-.16-5.29.11-38.58,27.42-54.15,61-34.76,3.73-50.61,42.1-70.08,88.8-43.12Z"/>
        </g>
        <g>
          <g>
            <path class="st8" d="M812.04,621.98c-.14.03-.29.04-.45.02,0,0,0,0-.01,0-.16-.01-.32-.05-.49-.11,0,0,0,0,0,0-.17-.06-.35-.14-.54-.25l-11.15-6.44s-.06-.03-.09-.05c-.04-.02-.08-.04-.11-.06-.04-.02-.07-.04-.11-.05-.04-.02-.07-.03-.11-.05-.04-.01-.07-.03-.11-.04,0,0-.01,0-.02,0,0,0,0,0,0,0-.03,0-.06-.02-.08-.03-.04-.01-.07-.02-.11-.03-.04,0-.07-.02-.11-.02-.04,0-.08-.01-.11-.02-.03,0-.05,0-.08,0,0,0,0,0-.01,0,0,0-.02,0-.03,0-.04,0-.08,0-.12,0-.05,0-.09,0-.14,0-.05,0-.1.01-.15.02,0,0,0,0,0,0,0,0,0,0,0,0-.06.01-.11.03-.16.04-.08.03-.15.06-.22.1l-21.11,12.27c.12-.07.24-.12.38-.14,0,0,0,0,0,0,.14-.03.28-.04.44-.02,0,0,0,0,.01,0,.16.01.32.05.49.11,0,0,0,0,0,0,.18.06.36.14.55.25l11.15,6.44s.06.03.08.05c.04.02.07.04.11.06.04.02.07.03.11.05.04.02.07.03.11.05.04.01.07.03.11.04,0,0,.01,0,.02,0,0,0,0,0,0,0,.03,0,.05.02.08.02.04.01.07.02.11.03.04,0,.07.02.11.02.04,0,.08.01.12.02.03,0,.05,0,.08,0,0,0,0,0,.01,0,0,0,.02,0,.03,0,.04,0,.08,0,.13,0,.05,0,.09,0,.14,0,.05,0,.1-.01.15-.02,0,0,0,0,0,0,0,0,0,0,0,0,.06-.01.12-.03.18-.05.08-.03.15-.06.22-.1l21.11-12.27c-.12.07-.25.12-.39.15,0,0,0,0,0,0Z"/>
            <path class="st8" d="M880.32,665.01s0-.08,0-.12c0-.04,0-.08,0-.13s0-.09-.01-.13c0-.04,0-.09-.01-.13,0-.05-.01-.09-.02-.14,0-.01,0-.03,0-.04,0,0,0,0,0,0,0-.03,0-.06-.02-.09,0-.05-.02-.09-.03-.14-.01-.05-.02-.1-.03-.14-.01-.05-.02-.1-.04-.14-.01-.05-.03-.1-.04-.14-.01-.05-.03-.1-.05-.14,0-.03-.02-.05-.03-.08,0,0,0,0,0,0,0-.02-.01-.03-.02-.05-.02-.04-.03-.09-.05-.13-.02-.04-.03-.09-.05-.13-.02-.04-.04-.09-.06-.13-.02-.04-.04-.09-.06-.13-.02-.04-.04-.09-.06-.13-.03-.06-.06-.12-.09-.18h0s0,0,0,0c-.05-.09-.1-.19-.16-.28-.05-.09-.11-.18-.17-.27-.05-.07-.1-.14-.15-.21-.02-.03-.04-.05-.06-.07,0,0,0-.01-.01-.02-.02-.02-.03-.05-.05-.07-.03-.04-.07-.08-.1-.12-.03-.04-.07-.08-.1-.12-.03-.04-.07-.08-.1-.11-.03-.04-.07-.07-.11-.11-.04-.04-.07-.07-.11-.11-.03-.03-.05-.05-.08-.07,0,0,0,0,0,0,0,0-.02-.02-.03-.03-.04-.04-.08-.07-.12-.1-.04-.03-.08-.06-.12-.1-.04-.03-.08-.06-.12-.09-.04-.03-.08-.06-.12-.08-.04-.03-.08-.05-.12-.08-.04-.03-.08-.05-.12-.07,0,0-.02-.01-.03-.02l-11.15-6.44c-.18-.1-.36-.23-.53-.37,0,0,0,0-.01-.01-.17-.14-.33-.29-.49-.46,0,0,0,0,0,0-.16-.17-.31-.35-.45-.54h0c-.14-.19-.27-.39-.39-.59,0,0-.01-.02-.02-.03-.12-.2-.22-.41-.31-.62,0,0,0,0,0,0-.09-.22-.17-.43-.24-.65,0,0,0,0,0,0-.07-.22-.12-.44-.15-.66h0c-.03-.22-.05-.44-.05-.65l.17-61.05c0-.09,0-.19,0-.29,0-.1,0-.2-.01-.31,0-.1-.01-.2-.02-.31,0-.1-.02-.21-.03-.31-.01-.11-.03-.21-.05-.32,0,0,0,0,0,0,0,0,0,0,0,0-.02-.1-.03-.2-.05-.31-.02-.11-.04-.22-.07-.33-.02-.11-.05-.22-.08-.33-.03-.11-.06-.22-.09-.34-.02-.09-.05-.17-.08-.26,0,0,0-.01,0-.02,0-.02-.01-.04-.02-.05-.03-.11-.07-.22-.1-.33-.04-.11-.07-.22-.11-.32-.04-.1-.08-.21-.12-.31-.04-.1-.08-.21-.12-.31-.03-.08-.07-.15-.1-.23,0,0,0-.01,0-.02,0-.02-.02-.04-.02-.05-.05-.1-.09-.2-.14-.31-.05-.11-.11-.22-.16-.33-.06-.13-.13-.25-.2-.38-.07-.13-.15-.27-.22-.4-.01-.02-.03-.05-.04-.07-.02-.03-.03-.06-.05-.09-.15-.25-.31-.51-.47-.75-.13-.19-.26-.38-.39-.56,0,0,0,0,0,0,0,0,0,0,0,0-.09-.12-.18-.25-.28-.37-.08-.1-.16-.2-.24-.3-.08-.1-.16-.19-.24-.28-.08-.09-.16-.18-.25-.27-.02-.02-.03-.03-.05-.05,0,0-.01-.01-.02-.02-.06-.07-.13-.13-.19-.2-.09-.09-.18-.18-.27-.26-.09-.09-.18-.17-.28-.26-.09-.08-.19-.17-.28-.24-.05-.04-.09-.08-.14-.12-.01,0-.02-.02-.03-.03-.04-.03-.07-.06-.11-.09-.09-.07-.18-.14-.28-.21-.09-.07-.18-.13-.27-.19-.09-.06-.18-.12-.27-.18-.09-.06-.18-.11-.27-.16-.02-.01-.04-.02-.06-.04l-38.01-21.94c-.07-.04-.13-.08-.2-.11-.09-.05-.17-.09-.26-.13-.06-.03-.11-.05-.17-.08-.01,0-.03-.01-.04-.02-.02,0-.03-.02-.05-.02-.08-.04-.17-.07-.25-.11-.09-.03-.17-.07-.25-.1-.01,0-.03,0-.04-.01-.01,0-.03,0-.04-.01-.06-.02-.11-.04-.17-.06-.09-.03-.17-.05-.26-.07-.04-.01-.08-.02-.12-.03-.02,0-.04,0-.05-.01-.03,0-.05-.01-.08-.02-.09-.02-.19-.03-.28-.05-.06,0-.11-.01-.17-.02-.02,0-.04,0-.06,0-.02,0-.04,0-.06,0-.1,0-.2-.01-.3,0-.04,0-.08,0-.13,0-.03,0-.07,0-.1,0-.03,0-.07,0-.1,0-.12.01-.25.03-.36.05,0,0,0,0,0,0-.03,0-.05.02-.08.02-.12.03-.24.06-.35.1,0,0-.02,0-.03.01-.17.06-.33.13-.48.22l-21.11,12.27c.15-.09.32-.16.48-.22.12-.04.25-.08.38-.11.03,0,.05-.02.08-.02.15-.03.31-.05.47-.06.03,0,.07,0,.1,0,.16,0,.32,0,.48,0,.02,0,.04,0,.06,0,.17.02.35.04.52.08.02,0,.04,0,.05.01.18.04.37.09.56.16.01,0,.03,0,.04.01.2.07.4.15.6.24.01,0,.03.01.04.02.21.1.42.2.63.33l38.01,21.94c.43.25.85.54,1.26.87.01,0,.02.02.03.03.4.33.79.69,1.16,1.08,0,0,.01.01.02.02.37.4.73.83,1.06,1.28,0,0,0,0,0,0,.33.45.63.91.91,1.4.01.02.03.05.04.07.27.48.52.97.74,1.47,0,0,0,.01,0,.02.22.51.41,1.03.57,1.55,0,0,0,.01,0,.02.16.52.28,1.04.36,1.56,0,0,0,0,0,0,.08.52.13,1.04.12,1.54l-.17,61.05s0,.08,0,.12c0,.04,0,.09,0,.13,0,.04,0,.09.01.13,0,.04,0,.09.01.13,0,.04.01.09.02.13,0,0,0,0,0,0,0,0,0,0,0,0,0,.04.01.08.02.13,0,.05.02.09.03.14.01.05.02.09.03.14.01.05.02.09.04.14.01.04.02.07.03.11,0,0,0,0,0,0,0,0,0,.01,0,.02.01.05.03.09.04.14.02.05.03.09.05.14.02.04.03.09.05.13.02.04.03.09.05.13.01.03.03.07.04.1,0,0,0,0,0,0,0,0,0,.01,0,.02.02.04.04.09.06.13.02.05.04.09.07.14.03.05.05.11.08.16.03.06.06.11.09.17,0,0,.01.02.02.03,0,.01.01.02.02.04.06.11.13.21.2.31.05.08.11.16.17.24.04.05.08.1.12.16.03.04.07.09.1.13.03.04.07.08.1.12.03.04.07.08.1.11,0,0,.01.01.02.02,0,0,0,0,0,0,.03.03.05.06.08.08.04.04.07.07.11.11.04.04.08.07.12.11.04.04.08.07.12.1.02.02.04.03.06.05,0,0,0,0,.01.01.02.01.03.03.05.04.04.03.08.06.12.09.04.03.08.06.12.08.04.03.07.05.11.07.04.02.07.05.11.07,0,0,.02.01.03.02l11.15,6.44c.27.16.53.35.76.57,0,0,0,0,0,0,.24.22.45.46.65.72,0,0,0,0,.01.01.2.26.38.54.53.83h0c.16.29.29.59.39.89,0,0,0,0,0,.01.1.3.18.6.23.88,0,0,0,0,0,0,.05.29.07.57.05.84,0,0,0,0,0,0-.03.53-.19.99-.51,1.31l-39.31,39.72c-.08.08-.17.15-.27.21l21.11-12.27c.1-.06.19-.13.27-.21l39.31-39.72c.07-.08.14-.16.2-.25.04-.06.07-.12.1-.19.02-.05.04-.1.06-.15.02-.05.03-.1.05-.15.01-.04.02-.08.03-.13,0-.04.02-.09.03-.13,0-.04.01-.08.02-.12,0-.04,0-.08.01-.12,0-.03,0-.06,0-.08,0,0,0,0,0,0,0-.01,0-.02,0-.03,0-.04,0-.08,0-.12Z"/>
          </g>
          <path class="st2" d="M836.62,589.67c3.49,2.01,6.31,6.9,6.3,10.92l-.17,61.05c0,1.69,1.18,3.75,2.65,4.6l11.15,6.44c2.17,1.25,3.42,4.8,2.14,6.09l-39.31,39.72c-.53.54-1.35.49-2.16.02-.81-.47-1.63-1.36-2.16-2.51l-38.96-84.91c-1.26-2.75,0-4.85,2.17-3.6l11.15,6.44c1.47.85,2.67.17,2.67-1.52l.17-61.05c.01-4.02,2.85-5.63,6.34-3.62l38.01,21.94Z"/>
        </g>
        <g>
          <path class="st2" d="M440.8,279.67s0-.06,0-.1c0,0,0,0,0,0,0,0,0-.01,0-.02,0-.04,0-.08,0-.12s0-.08-.01-.13c0-.04-.01-.09-.02-.13,0-.04-.01-.09-.02-.13,0-.01,0-.02,0-.03,0,0,0,0,0-.01,0-.03-.01-.06-.02-.09,0-.05-.02-.09-.03-.14-.01-.05-.02-.09-.04-.14-.01-.05-.03-.09-.04-.14-.01-.03-.02-.07-.03-.1,0,0,0,0,0-.01,0,0,0-.02,0-.02-.02-.05-.03-.09-.05-.14-.02-.05-.03-.09-.05-.14-.02-.04-.03-.09-.05-.13-.02-.04-.04-.09-.06-.13-.01-.03-.03-.06-.04-.09l-38.96-84.9s-.01-.03-.02-.04c-.02-.05-.04-.09-.07-.14-.03-.05-.05-.1-.08-.16-.04-.08-.09-.16-.13-.24-.04-.07-.08-.13-.12-.19-.01-.02-.03-.05-.04-.07-.02-.03-.03-.06-.05-.08-.05-.07-.1-.15-.15-.22-.04-.05-.07-.1-.11-.14-.03-.04-.07-.08-.1-.13-.03-.03-.06-.07-.08-.1,0,0,0,0,0,0,0,0,0,0-.01-.01-.03-.04-.07-.08-.1-.11-.04-.04-.07-.08-.11-.11-.04-.04-.08-.08-.11-.11-.04-.04-.08-.07-.12-.11-.04-.04-.08-.07-.12-.1-.04-.03-.08-.07-.12-.1-.04-.03-.08-.06-.12-.09-.04-.03-.08-.06-.12-.08-.04-.03-.08-.05-.11-.07-.04-.02-.07-.05-.11-.07,0,0-.02-.01-.03-.01-.03-.02-.06-.03-.08-.05-.04-.02-.07-.04-.11-.06-.04-.02-.07-.03-.11-.05-.04-.02-.07-.03-.11-.05-.03-.01-.07-.03-.1-.04h0s0,0,0,0c-.04-.01-.07-.02-.11-.04-.04-.01-.07-.02-.11-.03-.04,0-.07-.02-.11-.02-.04,0-.08-.01-.11-.02-.01,0-.03,0-.04,0,0,0,0,0-.01,0-.02,0-.04,0-.07,0-.04,0-.08,0-.13,0-.05,0-.09,0-.13,0-.04,0-.08.01-.12.02,0,0,0,0-.01,0,0,0,0,0-.01,0-.06.01-.12.03-.18.05-.07.03-.15.06-.22.1l-21.11,12.27c.13-.07.27-.12.41-.15,0,0,0,0,.01,0,.14-.03.29-.03.45-.01,0,0,0,0,.01,0,.16.02.32.06.49.12h0c.17.06.34.14.51.24.41.23.81.57,1.18,1,0,0,0,0,0,0,.18.2.34.43.5.67.02.02.03.05.04.07.15.24.3.5.42.77l34.67,75.54-10.92,6.35c-.16.09-.29.24-.41.4-.01.02-.04.03-.05.05-.04.06-.07.12-.1.18,0,0,0,0,0,0,0,0,0,0,0,0-.02.04-.04.09-.06.13-.02.05-.03.09-.05.14-.01.04-.02.09-.04.14,0,.02,0,.04-.01.06,0,0,0,.01,0,.02,0,.02,0,.04-.01.06,0,.04-.01.08-.02.13,0,.04,0,.08-.01.13,0,.04,0,.08,0,.13,0,.04,0,.09,0,.13,0,0,0,0,0,0l-.17,61.05c0,.24-.01.47-.03.69,0,.02,0,.04,0,.06-.02.2-.05.4-.09.59,0,.03,0,.05-.01.07-.04.18-.08.36-.14.53,0,.03-.02.06-.03.09-.05.16-.11.31-.18.45,0,.02-.01.03-.02.05-.08.16-.16.31-.25.46-.13.2-.28.38-.44.54-.04.04-.08.08-.12.11-.17.15-.34.29-.53.41l21.11-12.27c.19-.11.37-.25.53-.41.04-.04.08-.07.12-.11.16-.16.31-.34.44-.54,0,0,0,0,0,0,.09-.14.17-.28.24-.43,0,0,0-.01,0-.02,0-.01.01-.03.02-.05.04-.1.09-.19.13-.3.02-.05.03-.1.05-.16.01-.03.02-.06.03-.09,0-.03.02-.06.03-.08.03-.1.06-.21.08-.32,0-.04.02-.08.02-.12,0-.03.01-.05.02-.08,0-.04.02-.08.02-.11.02-.1.03-.2.05-.3,0-.06.01-.11.02-.17,0-.02,0-.04,0-.06,0-.02,0-.05,0-.07,0-.1.01-.2.02-.3,0-.1,0-.2,0-.31,0,0,0-.01,0-.02l.13-46.79,15.74-9.15c.1-.06.19-.13.28-.22.03-.03.05-.06.07-.09.04-.05.08-.09.12-.14.02-.02.03-.05.04-.08,0-.02.02-.03.03-.05.01-.02.02-.04.03-.06.02-.05.05-.1.07-.16.02-.05.03-.1.05-.15,0,0,0,0,0,0,0,0,0,0,0,0,.01-.04.02-.09.03-.13.01-.04.02-.09.03-.13,0-.04.01-.08.02-.13,0-.02,0-.04,0-.07,0,0,0,0,0-.01,0-.01,0-.03,0-.05,0-.04,0-.08,0-.13,0-.04,0-.08,0-.12,0-.04,0-.08,0-.12Z"/>
          <path class="st8" d="M378.08,202.56c.81.47,1.62,1.36,2.15,2.51l38.96,84.9c1.26,2.75,0,4.86-2.18,3.6l-11.14-6.43c-1.48-.85-2.67-.17-2.67,1.52l-.17,61.05c-.01,4.02-2.86,5.63-6.35,3.62l-38-21.94c-3.5-2.02-6.32-6.9-6.31-10.92l.17-61.05c0-1.69-1.18-3.75-2.65-4.6l-11.15-6.44c-2.17-1.25-3.42-4.81-2.14-6.1l39.32-39.71c.53-.54,1.35-.49,2.16-.02Z"/>
        </g>
      </g>
    </g>
  </g>
</svg>