<svg xmlns="http://www.w3.org/2000/svg" xmlns:xlink="http://www.w3.org/1999/xlink" viewBox="0 0 24 24" fill="#FFFFFF">
  <path d="M12 2C9.247419 2 6.7443969 3.123319 4.9335938 4.9335938L3 3L3 8L8 8L6.3457031 6.3457031C7.7940327 4.8959697 9.790268 4 12 4C16.419477 4 20 7.5805232 20 12L22 12C22 6.4954768 17.504523 2 12 2 z M 11.712891 5.5996094L11.712891 7.0273438C11.373891 7.0703437 9.4765625 7.42875 9.4765625 9.71875C9.4765625 13.05975 12.935547 12.069828 12.935547 14.298828C12.935547 15.414828 12.213406 15.441406 12.066406 15.441406C11.932406 15.441406 11.052734 15.512688 11.052734 13.804688L9.1621094 13.804688C9.1621094 16.696688 11.260266 16.927703 11.572266 16.970703L11.572266 18.300781L12.574219 18.300781L12.574219 16.970703C12.912219 16.928703 14.824219 16.613156 14.824219 14.285156C14.824219 11.080156 11.366234 11.693563 11.365234 9.7265625C11.365234 8.5995625 11.985141 8.5644531 12.119141 8.5644531C12.364141 8.5644531 12.947266 8.7812969 12.947266 10.154297L14.837891 10.154297C14.837891 7.5272969 13.041703 7.1176406 12.720703 7.0566406L12.720703 5.5996094L11.712891 5.5996094 z M 2 12C2 17.504523 6.4954768 22 12 22C14.752581 22 17.255603 20.876681 19.066406 19.066406L21 21L21 16L16 16L17.654297 17.654297C16.205967 19.104031 14.209732 20 12 20C7.5805232 20 4 16.419477 4 12L2 12 z" fill="#FFFFFF" />
</svg>