<?xml version="1.0" encoding="UTF-8"?>
<svg id="Object" xmlns="http://www.w3.org/2000/svg" version="1.1" viewBox="0 0 1122 1122">
  <!-- Generator: Adobe Illustrator 30.0.0, SVG Export Plug-In . SVG Version: 2.1.1 Build 123)  -->
  <defs>
    <style>
      .st0 {
        fill: #fff;
      }
    </style>
  </defs>
  <path class="st0" d="M364.45,293.18c-10.73.94-18.93,9.9-18.93,20.66v474.87c0,10.1,7.19,18.66,17.12,20.44l216.74,38.61c6.06,1.09,12.26-.55,16.96-4.52,4.72-3.95,7.43-9.76,7.43-15.9V294.68c0-5.86-2.41-11.35-6.72-15.3-4.33-3.96-10.02-5.89-15.86-5.37l-216.74,19.17ZM546.95,589.38c-8.92,0-16.16-12.72-16.16-28.38s7.24-28.37,16.16-28.37,16.17,12.69,16.17,28.37-7.24,28.38-16.17,28.38Z"/>
  <polygon class="st0" points="918.48 549.88 749.07 424.1 749.07 489.35 617.46 489.35 617.46 609.63 749.07 609.63 749.07 674.86 918.48 549.88"/>
  <path class="st0" d="M530.79,560.99c0,15.66,7.24,28.38,16.16,28.38s16.17-12.72,16.17-28.38-7.24-28.37-16.17-28.37-16.16,12.69-16.16,28.37Z"/>
  <path class="st0" d="M734.33,470.85v-162.35c0-4.26-1.71-8.43-4.73-11.44-2.99-3.01-7.16-4.74-11.41-4.74h-100.72v32.34h84.55v146.19h32.32Z"/>
  <path class="st0" d="M617.46,797.33v32.34h100.72c4.25,0,8.42-1.72,11.41-4.74,3.02-3,4.73-7.18,4.73-11.43v-186.35h-32.32v170.2h-84.55Z"/>
</svg>